<?xml version="1.0" encoding="UTF-8"?>
<svg xmlns="http://www.w3.org/2000/svg" width="1800" height="500" viewBox="0 0 1800 500" role="img" aria-labelledby="title desc">
<style>
  .theme-bg { fill: #ffffff; }
  .theme-plot { fill: #f8fafc; }
  .theme-text { fill: #111827; }
  .theme-muted { fill: #64748b; }
  .theme-grid { stroke: #e2e8f0; }
  @media (prefers-color-scheme: dark) {
    .theme-bg { fill: #1f2227; }
    .theme-plot { fill: #202328; }
    .theme-text { fill: #d8d9da; }
    .theme-muted { fill: #a8abb2; }
    .theme-grid { stroke: #34383f; }
  }
</style>
<title id="title">Active VUs</title>
<desc id="desc">Active virtual users for six sequential high-pressure linear-ramp executions.</desc>
<rect class="theme-bg" width="1800" height="500" rx="12" fill="#ffffff"/>
<rect class="theme-plot" x="92" y="76" width="1680" height="278" fill="#f8fafc"/>
<text class="theme-text" x="18.00" y="30.00" fill="#111827" font-family="Inter,system-ui,sans-serif" font-size="16" font-weight="600" text-anchor="start">Active VUs</text>
<line class="theme-grid" x1="92" y1="354.00" x2="1772" y2="354.00" stroke="#e2e8f0"/>
<text class="theme-muted" x="82.00" y="358.00" fill="#64748b" font-family="Inter,system-ui,sans-serif" font-size="11" font-weight="400" text-anchor="end">0 VUs</text>
<line class="theme-grid" x1="92" y1="303.45" x2="1772" y2="303.45" stroke="#e2e8f0"/>
<text class="theme-muted" x="82.00" y="307.45" fill="#64748b" font-family="Inter,system-ui,sans-serif" font-size="11" font-weight="400" text-anchor="end">200 VUs</text>
<line class="theme-grid" x1="92" y1="252.91" x2="1772" y2="252.91" stroke="#e2e8f0"/>
<text class="theme-muted" x="82.00" y="256.91" fill="#64748b" font-family="Inter,system-ui,sans-serif" font-size="11" font-weight="400" text-anchor="end">400 VUs</text>
<line class="theme-grid" x1="92" y1="202.36" x2="1772" y2="202.36" stroke="#e2e8f0"/>
<text class="theme-muted" x="82.00" y="206.36" fill="#64748b" font-family="Inter,system-ui,sans-serif" font-size="11" font-weight="400" text-anchor="end">600 VUs</text>
<line class="theme-grid" x1="92" y1="151.82" x2="1772" y2="151.82" stroke="#e2e8f0"/>
<text class="theme-muted" x="82.00" y="155.82" fill="#64748b" font-family="Inter,system-ui,sans-serif" font-size="11" font-weight="400" text-anchor="end">800 VUs</text>
<line class="theme-grid" x1="92" y1="101.27" x2="1772" y2="101.27" stroke="#e2e8f0"/>
<text class="theme-muted" x="82.00" y="105.27" fill="#64748b" font-family="Inter,system-ui,sans-serif" font-size="11" font-weight="400" text-anchor="end">1,000 VUs</text>
<line class="theme-grid" x1="92.00" y1="76" x2="92.00" y2="354" stroke="#e2e8f0"/>
<text class="theme-muted" x="92.00" y="374.00" fill="#64748b" font-family="Inter,system-ui,sans-serif" font-size="10" font-weight="400" text-anchor="middle">14:19:09</text>
<line class="theme-grid" x1="183.64" y1="76" x2="183.64" y2="354" stroke="#e2e8f0"/>
<text class="theme-muted" x="183.64" y="374.00" fill="#64748b" font-family="Inter,system-ui,sans-serif" font-size="10" font-weight="400" text-anchor="middle">14:19:39</text>
<line class="theme-grid" x1="275.27" y1="76" x2="275.27" y2="354" stroke="#e2e8f0"/>
<text class="theme-muted" x="275.27" y="374.00" fill="#64748b" font-family="Inter,system-ui,sans-serif" font-size="10" font-weight="400" text-anchor="middle">14:20:09</text>
<line class="theme-grid" x1="366.91" y1="76" x2="366.91" y2="354" stroke="#e2e8f0"/>
<text class="theme-muted" x="366.91" y="374.00" fill="#64748b" font-family="Inter,system-ui,sans-serif" font-size="10" font-weight="400" text-anchor="middle">14:20:39</text>
<line class="theme-grid" x1="458.55" y1="76" x2="458.55" y2="354" stroke="#e2e8f0"/>
<text class="theme-muted" x="458.55" y="374.00" fill="#64748b" font-family="Inter,system-ui,sans-serif" font-size="10" font-weight="400" text-anchor="middle">14:21:09</text>
<line class="theme-grid" x1="550.18" y1="76" x2="550.18" y2="354" stroke="#e2e8f0"/>
<text class="theme-muted" x="550.18" y="374.00" fill="#64748b" font-family="Inter,system-ui,sans-serif" font-size="10" font-weight="400" text-anchor="middle">14:21:39</text>
<line class="theme-grid" x1="641.82" y1="76" x2="641.82" y2="354" stroke="#e2e8f0"/>
<text class="theme-muted" x="641.82" y="374.00" fill="#64748b" font-family="Inter,system-ui,sans-serif" font-size="10" font-weight="400" text-anchor="middle">14:22:09</text>
<line class="theme-grid" x1="733.45" y1="76" x2="733.45" y2="354" stroke="#e2e8f0"/>
<text class="theme-muted" x="733.45" y="374.00" fill="#64748b" font-family="Inter,system-ui,sans-serif" font-size="10" font-weight="400" text-anchor="middle">14:22:39</text>
<line class="theme-grid" x1="825.09" y1="76" x2="825.09" y2="354" stroke="#e2e8f0"/>
<text class="theme-muted" x="825.09" y="374.00" fill="#64748b" font-family="Inter,system-ui,sans-serif" font-size="10" font-weight="400" text-anchor="middle">14:23:09</text>
<line class="theme-grid" x1="916.73" y1="76" x2="916.73" y2="354" stroke="#e2e8f0"/>
<text class="theme-muted" x="916.73" y="374.00" fill="#64748b" font-family="Inter,system-ui,sans-serif" font-size="10" font-weight="400" text-anchor="middle">14:23:39</text>
<line class="theme-grid" x1="1008.36" y1="76" x2="1008.36" y2="354" stroke="#e2e8f0"/>
<text class="theme-muted" x="1008.36" y="374.00" fill="#64748b" font-family="Inter,system-ui,sans-serif" font-size="10" font-weight="400" text-anchor="middle">14:24:09</text>
<line class="theme-grid" x1="1100.00" y1="76" x2="1100.00" y2="354" stroke="#e2e8f0"/>
<text class="theme-muted" x="1100.00" y="374.00" fill="#64748b" font-family="Inter,system-ui,sans-serif" font-size="10" font-weight="400" text-anchor="middle">14:24:39</text>
<line class="theme-grid" x1="1191.64" y1="76" x2="1191.64" y2="354" stroke="#e2e8f0"/>
<text class="theme-muted" x="1191.64" y="374.00" fill="#64748b" font-family="Inter,system-ui,sans-serif" font-size="10" font-weight="400" text-anchor="middle">14:25:09</text>
<line class="theme-grid" x1="1283.27" y1="76" x2="1283.27" y2="354" stroke="#e2e8f0"/>
<text class="theme-muted" x="1283.27" y="374.00" fill="#64748b" font-family="Inter,system-ui,sans-serif" font-size="10" font-weight="400" text-anchor="middle">14:25:39</text>
<line class="theme-grid" x1="1374.91" y1="76" x2="1374.91" y2="354" stroke="#e2e8f0"/>
<text class="theme-muted" x="1374.91" y="374.00" fill="#64748b" font-family="Inter,system-ui,sans-serif" font-size="10" font-weight="400" text-anchor="middle">14:26:09</text>
<line class="theme-grid" x1="1466.55" y1="76" x2="1466.55" y2="354" stroke="#e2e8f0"/>
<text class="theme-muted" x="1466.55" y="374.00" fill="#64748b" font-family="Inter,system-ui,sans-serif" font-size="10" font-weight="400" text-anchor="middle">14:26:39</text>
<line class="theme-grid" x1="1558.18" y1="76" x2="1558.18" y2="354" stroke="#e2e8f0"/>
<text class="theme-muted" x="1558.18" y="374.00" fill="#64748b" font-family="Inter,system-ui,sans-serif" font-size="10" font-weight="400" text-anchor="middle">14:27:09</text>
<line class="theme-grid" x1="1649.82" y1="76" x2="1649.82" y2="354" stroke="#e2e8f0"/>
<text class="theme-muted" x="1649.82" y="374.00" fill="#64748b" font-family="Inter,system-ui,sans-serif" font-size="10" font-weight="400" text-anchor="middle">14:27:39</text>
<line class="theme-grid" x1="1741.45" y1="76" x2="1741.45" y2="354" stroke="#e2e8f0"/>
<text class="theme-muted" x="1741.45" y="374.00" fill="#64748b" font-family="Inter,system-ui,sans-serif" font-size="10" font-weight="400" text-anchor="middle">14:28:09</text>
<path d="M 92.00 353.24 L 95.05 353.49 L 98.11 353.49 L 101.16 353.49 L 104.22 353.49 L 107.27 353.75 L 110.33 353.75 L 113.38 352.74 L 116.44 353.24 L 119.49 353.49 L 122.55 353.24 L 125.60 353.24 L 128.65 351.73 L 131.71 353.24 L 134.76 352.23 L 137.82 353.24 L 140.87 352.74 L 143.93 353.24 L 146.98 350.97 L 150.04 351.73 L 153.09 347.93 L 156.15 353.24 L 159.20 352.74 L 162.25 353.24 L 165.31 350.97 L 168.36 352.74 L 171.42 352.74 L 174.47 348.69 L 177.53 352.48 L 180.58 352.74 L 183.64 352.74 L 186.69 352.48 L 189.75 351.47 L 192.80 352.48 L 195.85 351.98 L 198.91 352.23 L 201.96 350.21 L 205.02 352.48 L 208.07 352.48 L 211.13 351.47 L 214.18 351.98 L 217.24 352.23 L 220.29 352.23 L 223.35 351.73 L 226.40 351.98 L 229.45 351.98 L 232.51 351.73 L 235.56 352.23 L 238.62 351.98 L 241.67 344.14 L 244.73 351.73 L 247.78 350.71 L 250.84 351.73 L 253.89 351.22 L 256.95 351.98 L 260.00 331.51 L 263.05 351.47 L 266.11 333.02 L 269.16 344.14 L 272.22 351.22 L 275.27 351.22 L 278.33 351.22 L 281.38 350.46 L 284.44 351.22 L 287.49 351.22 L 290.55 351.47 L 293.60 334.79 L 296.65 351.22 L 299.71 351.47 L 302.76 350.46 L 305.82 350.71 L 308.87 337.83 L 311.93 350.97 L 314.98 351.22 L 318.04 334.54 L 321.09 350.97 L 324.15 328.73 L 327.20 350.71 L 330.25 328.98 L 333.31 350.21 L 336.36 328.73 L 339.42 329.23 L 342.47 328.73 L 345.53 350.71 L 348.58 328.73 L 351.64 328.73 L 354.69 329.23 L 357.75 328.98 L 360.80 328.73 L 363.85 350.71 L 363.85 354.00 L 92.00 354.00 Z" fill="#fb923c" opacity="0.08"/>
<path d="M 92.00 353.24 L 95.05 353.49 L 98.11 353.49 L 101.16 353.49 L 104.22 353.49 L 107.27 353.75 L 110.33 353.75 L 113.38 352.74 L 116.44 353.24 L 119.49 353.49 L 122.55 353.24 L 125.60 353.24 L 128.65 351.73 L 131.71 353.24 L 134.76 352.23 L 137.82 353.24 L 140.87 352.74 L 143.93 353.24 L 146.98 350.97 L 150.04 351.73 L 153.09 347.93 L 156.15 353.24 L 159.20 352.74 L 162.25 353.24 L 165.31 350.97 L 168.36 352.74 L 171.42 352.74 L 174.47 348.69 L 177.53 352.48 L 180.58 352.74 L 183.64 352.74 L 186.69 352.48 L 189.75 351.47 L 192.80 352.48 L 195.85 351.98 L 198.91 352.23 L 201.96 350.21 L 205.02 352.48 L 208.07 352.48 L 211.13 351.47 L 214.18 351.98 L 217.24 352.23 L 220.29 352.23 L 223.35 351.73 L 226.40 351.98 L 229.45 351.98 L 232.51 351.73 L 235.56 352.23 L 238.62 351.98 L 241.67 344.14 L 244.73 351.73 L 247.78 350.71 L 250.84 351.73 L 253.89 351.22 L 256.95 351.98 L 260.00 331.51 L 263.05 351.47 L 266.11 333.02 L 269.16 344.14 L 272.22 351.22 L 275.27 351.22 L 278.33 351.22 L 281.38 350.46 L 284.44 351.22 L 287.49 351.22 L 290.55 351.47 L 293.60 334.79 L 296.65 351.22 L 299.71 351.47 L 302.76 350.46 L 305.82 350.71 L 308.87 337.83 L 311.93 350.97 L 314.98 351.22 L 318.04 334.54 L 321.09 350.97 L 324.15 328.73 L 327.20 350.71 L 330.25 328.98 L 333.31 350.21 L 336.36 328.73 L 339.42 329.23 L 342.47 328.73 L 345.53 350.71 L 348.58 328.73 L 351.64 328.73 L 354.69 329.23 L 357.75 328.98 L 360.80 328.73 L 363.85 350.71" fill="none" stroke="#fb923c" stroke-width="2.2" stroke-linejoin="round" stroke-linecap="round"/>
<path d="M 366.91 353.75 L 369.96 353.75 L 373.02 353.49 L 376.07 353.24 L 379.13 352.99 L 382.18 353.49 L 385.24 353.75 L 388.29 352.99 L 391.35 353.24 L 394.40 353.24 L 397.45 353.24 L 400.51 351.22 L 403.56 351.73 L 406.62 352.99 L 409.67 352.99 L 412.73 352.99 L 415.78 348.95 L 418.84 352.99 L 421.89 352.74 L 424.95 352.99 L 428.00 353.24 L 431.05 352.99 L 434.11 352.74 L 437.16 352.74 L 440.22 352.74 L 443.27 350.97 L 446.33 352.48 L 449.38 352.48 L 452.44 352.48 L 455.49 347.18 L 458.55 349.20 L 461.60 352.23 L 464.65 352.48 L 467.71 352.23 L 470.76 352.48 L 473.82 352.48 L 476.87 352.48 L 479.93 347.43 L 482.98 351.98 L 486.04 351.98 L 489.09 345.41 L 492.15 352.23 L 495.20 341.62 L 498.25 352.23 L 501.31 351.73 L 504.36 351.73 L 507.42 343.64 L 510.47 351.22 L 513.53 351.47 L 516.58 339.34 L 519.64 351.47 L 522.69 351.73 L 525.75 351.73 L 528.80 326.96 L 531.85 351.73 L 534.91 347.68 L 537.96 351.73 L 541.02 351.73 L 544.07 347.18 L 547.13 338.08 L 550.18 351.47 L 553.24 350.97 L 556.29 351.47 L 559.35 351.47 L 562.40 350.21 L 565.45 351.22 L 568.51 336.06 L 571.56 350.97 L 574.62 351.22 L 577.67 337.07 L 580.73 350.21 L 583.78 350.71 L 586.84 350.71 L 589.89 350.71 L 592.95 311.79 L 596.00 300.42 L 599.05 245.58 L 602.11 211.46 L 605.16 163.19 L 608.22 127.30 L 611.27 140.70 L 614.33 105.06 L 617.38 101.27 L 620.44 144.49 L 623.49 105.82 L 626.55 183.66 L 629.60 101.78 L 632.65 110.37 L 635.71 101.27 L 638.76 101.27 L 641.82 341.11 L 644.87 344.90 L 647.93 345.15 L 650.98 350.71 L 654.04 350.71 L 654.04 354.00 L 366.91 354.00 Z" fill="#60a5fa" opacity="0.08"/>
<path d="M 366.91 353.75 L 369.96 353.75 L 373.02 353.49 L 376.07 353.24 L 379.13 352.99 L 382.18 353.49 L 385.24 353.75 L 388.29 352.99 L 391.35 353.24 L 394.40 353.24 L 397.45 353.24 L 400.51 351.22 L 403.56 351.73 L 406.62 352.99 L 409.67 352.99 L 412.73 352.99 L 415.78 348.95 L 418.84 352.99 L 421.89 352.74 L 424.95 352.99 L 428.00 353.24 L 431.05 352.99 L 434.11 352.74 L 437.16 352.74 L 440.22 352.74 L 443.27 350.97 L 446.33 352.48 L 449.38 352.48 L 452.44 352.48 L 455.49 347.18 L 458.55 349.20 L 461.60 352.23 L 464.65 352.48 L 467.71 352.23 L 470.76 352.48 L 473.82 352.48 L 476.87 352.48 L 479.93 347.43 L 482.98 351.98 L 486.04 351.98 L 489.09 345.41 L 492.15 352.23 L 495.20 341.62 L 498.25 352.23 L 501.31 351.73 L 504.36 351.73 L 507.42 343.64 L 510.47 351.22 L 513.53 351.47 L 516.58 339.34 L 519.64 351.47 L 522.69 351.73 L 525.75 351.73 L 528.80 326.96 L 531.85 351.73 L 534.91 347.68 L 537.96 351.73 L 541.02 351.73 L 544.07 347.18 L 547.13 338.08 L 550.18 351.47 L 553.24 350.97 L 556.29 351.47 L 559.35 351.47 L 562.40 350.21 L 565.45 351.22 L 568.51 336.06 L 571.56 350.97 L 574.62 351.22 L 577.67 337.07 L 580.73 350.21 L 583.78 350.71 L 586.84 350.71 L 589.89 350.71 L 592.95 311.79 L 596.00 300.42 L 599.05 245.58 L 602.11 211.46 L 605.16 163.19 L 608.22 127.30 L 611.27 140.70 L 614.33 105.06 L 617.38 101.27 L 620.44 144.49 L 623.49 105.82 L 626.55 183.66 L 629.60 101.78 L 632.65 110.37 L 635.71 101.27 L 638.76 101.27 L 641.82 341.11 L 644.87 344.90 L 647.93 345.15 L 650.98 350.71 L 654.04 350.71" fill="none" stroke="#60a5fa" stroke-width="2.2" stroke-linejoin="round" stroke-linecap="round"/>
<path d="M 663.20 353.75 L 666.25 353.24 L 669.31 353.49 L 672.36 353.75 L 675.42 353.24 L 678.47 353.49 L 681.53 353.24 L 684.58 353.75 L 687.64 353.24 L 690.69 353.24 L 693.75 353.49 L 696.80 353.24 L 699.85 353.24 L 702.91 353.49 L 705.96 352.23 L 709.02 353.49 L 712.07 352.99 L 715.13 352.99 L 718.18 350.46 L 721.24 352.74 L 724.29 352.99 L 727.35 352.99 L 730.40 352.74 L 733.45 352.74 L 736.51 349.20 L 739.56 352.74 L 742.62 350.46 L 745.67 352.48 L 748.73 352.99 L 751.78 351.98 L 754.84 346.67 L 757.89 352.74 L 760.95 352.99 L 764.00 352.48 L 767.05 351.98 L 770.11 352.23 L 773.16 352.23 L 776.22 352.23 L 779.27 352.23 L 782.33 351.98 L 785.38 351.98 L 788.44 352.23 L 791.49 352.48 L 794.55 342.88 L 797.60 351.47 L 800.65 351.98 L 803.71 351.98 L 806.76 351.98 L 809.82 351.73 L 812.87 351.73 L 815.93 352.23 L 818.98 351.73 L 822.04 351.22 L 825.09 351.73 L 828.15 340.35 L 831.20 351.73 L 834.25 345.91 L 837.31 346.67 L 840.36 351.47 L 843.42 351.22 L 846.47 351.73 L 849.53 351.73 L 852.58 333.02 L 855.64 350.71 L 858.69 351.47 L 861.75 350.97 L 864.80 351.22 L 867.85 351.47 L 870.91 332.01 L 873.96 351.22 L 877.02 350.97 L 880.07 343.64 L 883.13 350.97 L 886.18 350.21 L 889.24 350.71 L 892.29 351.22 L 895.35 336.06 L 898.40 350.71 L 901.45 329.49 L 904.51 350.97 L 907.56 328.73 L 910.62 332.01 L 913.67 328.98 L 916.73 349.20 L 919.78 329.23 L 922.84 328.73 L 925.89 328.73 L 928.95 328.73 L 932.00 349.70 L 935.05 328.73 L 935.05 354.00 L 663.20 354.00 Z" fill="#f97316" opacity="0.08"/>
<path d="M 663.20 353.75 L 666.25 353.24 L 669.31 353.49 L 672.36 353.75 L 675.42 353.24 L 678.47 353.49 L 681.53 353.24 L 684.58 353.75 L 687.64 353.24 L 690.69 353.24 L 693.75 353.49 L 696.80 353.24 L 699.85 353.24 L 702.91 353.49 L 705.96 352.23 L 709.02 353.49 L 712.07 352.99 L 715.13 352.99 L 718.18 350.46 L 721.24 352.74 L 724.29 352.99 L 727.35 352.99 L 730.40 352.74 L 733.45 352.74 L 736.51 349.20 L 739.56 352.74 L 742.62 350.46 L 745.67 352.48 L 748.73 352.99 L 751.78 351.98 L 754.84 346.67 L 757.89 352.74 L 760.95 352.99 L 764.00 352.48 L 767.05 351.98 L 770.11 352.23 L 773.16 352.23 L 776.22 352.23 L 779.27 352.23 L 782.33 351.98 L 785.38 351.98 L 788.44 352.23 L 791.49 352.48 L 794.55 342.88 L 797.60 351.47 L 800.65 351.98 L 803.71 351.98 L 806.76 351.98 L 809.82 351.73 L 812.87 351.73 L 815.93 352.23 L 818.98 351.73 L 822.04 351.22 L 825.09 351.73 L 828.15 340.35 L 831.20 351.73 L 834.25 345.91 L 837.31 346.67 L 840.36 351.47 L 843.42 351.22 L 846.47 351.73 L 849.53 351.73 L 852.58 333.02 L 855.64 350.71 L 858.69 351.47 L 861.75 350.97 L 864.80 351.22 L 867.85 351.47 L 870.91 332.01 L 873.96 351.22 L 877.02 350.97 L 880.07 343.64 L 883.13 350.97 L 886.18 350.21 L 889.24 350.71 L 892.29 351.22 L 895.35 336.06 L 898.40 350.71 L 901.45 329.49 L 904.51 350.97 L 907.56 328.73 L 910.62 332.01 L 913.67 328.98 L 916.73 349.20 L 919.78 329.23 L 922.84 328.73 L 925.89 328.73 L 928.95 328.73 L 932.00 349.70 L 935.05 328.73" fill="none" stroke="#f97316" stroke-width="2.2" stroke-linejoin="round" stroke-linecap="round"/>
<path d="M 938.11 353.49 L 941.16 353.49 L 944.22 353.49 L 947.27 353.75 L 950.33 352.99 L 953.38 353.49 L 956.44 353.49 L 959.49 352.48 L 962.55 351.73 L 965.60 353.24 L 968.65 353.49 L 971.71 353.24 L 974.76 353.49 L 977.82 352.99 L 980.87 353.24 L 983.93 352.74 L 986.98 353.24 L 990.04 346.92 L 993.09 352.99 L 996.15 352.99 L 999.20 352.99 L 1002.25 352.99 L 1005.31 352.23 L 1008.36 353.24 L 1011.42 352.48 L 1014.47 352.99 L 1017.53 349.96 L 1020.58 352.99 L 1023.64 352.48 L 1026.69 351.22 L 1029.75 348.95 L 1032.80 352.23 L 1035.85 352.99 L 1038.91 352.74 L 1041.96 352.48 L 1045.02 352.48 L 1048.07 352.48 L 1051.13 352.48 L 1054.18 341.87 L 1057.24 346.92 L 1060.29 351.98 L 1063.35 351.98 L 1066.40 352.23 L 1069.45 352.23 L 1072.51 351.73 L 1075.56 352.23 L 1078.62 351.22 L 1081.67 351.98 L 1084.73 351.98 L 1087.78 351.22 L 1090.84 352.23 L 1093.89 351.22 L 1096.95 351.73 L 1100.00 342.37 L 1103.05 350.71 L 1106.11 351.73 L 1109.16 339.34 L 1112.22 351.22 L 1115.27 351.22 L 1118.33 351.47 L 1121.38 351.47 L 1124.44 350.71 L 1127.49 344.40 L 1130.55 351.22 L 1133.60 335.05 L 1136.65 351.47 L 1139.71 346.67 L 1142.76 346.42 L 1145.82 351.47 L 1148.87 336.06 L 1151.93 350.97 L 1154.98 351.22 L 1158.04 351.47 L 1161.09 341.11 L 1164.15 301.94 L 1167.20 268.58 L 1170.25 245.07 L 1173.31 199.33 L 1176.36 158.39 L 1179.42 133.62 L 1182.47 141.71 L 1185.53 197.31 L 1188.58 105.06 L 1191.64 211.97 L 1194.69 118.46 L 1197.75 157.88 L 1200.80 134.63 L 1203.85 101.53 L 1206.91 101.27 L 1209.96 101.27 L 1213.02 352.74 L 1213.02 354.00 L 938.11 354.00 Z" fill="#2563eb" opacity="0.08"/>
<path d="M 938.11 353.49 L 941.16 353.49 L 944.22 353.49 L 947.27 353.75 L 950.33 352.99 L 953.38 353.49 L 956.44 353.49 L 959.49 352.48 L 962.55 351.73 L 965.60 353.24 L 968.65 353.49 L 971.71 353.24 L 974.76 353.49 L 977.82 352.99 L 980.87 353.24 L 983.93 352.74 L 986.98 353.24 L 990.04 346.92 L 993.09 352.99 L 996.15 352.99 L 999.20 352.99 L 1002.25 352.99 L 1005.31 352.23 L 1008.36 353.24 L 1011.42 352.48 L 1014.47 352.99 L 1017.53 349.96 L 1020.58 352.99 L 1023.64 352.48 L 1026.69 351.22 L 1029.75 348.95 L 1032.80 352.23 L 1035.85 352.99 L 1038.91 352.74 L 1041.96 352.48 L 1045.02 352.48 L 1048.07 352.48 L 1051.13 352.48 L 1054.18 341.87 L 1057.24 346.92 L 1060.29 351.98 L 1063.35 351.98 L 1066.40 352.23 L 1069.45 352.23 L 1072.51 351.73 L 1075.56 352.23 L 1078.62 351.22 L 1081.67 351.98 L 1084.73 351.98 L 1087.78 351.22 L 1090.84 352.23 L 1093.89 351.22 L 1096.95 351.73 L 1100.00 342.37 L 1103.05 350.71 L 1106.11 351.73 L 1109.16 339.34 L 1112.22 351.22 L 1115.27 351.22 L 1118.33 351.47 L 1121.38 351.47 L 1124.44 350.71 L 1127.49 344.40 L 1130.55 351.22 L 1133.60 335.05 L 1136.65 351.47 L 1139.71 346.67 L 1142.76 346.42 L 1145.82 351.47 L 1148.87 336.06 L 1151.93 350.97 L 1154.98 351.22 L 1158.04 351.47 L 1161.09 341.11 L 1164.15 301.94 L 1167.20 268.58 L 1170.25 245.07 L 1173.31 199.33 L 1176.36 158.39 L 1179.42 133.62 L 1182.47 141.71 L 1185.53 197.31 L 1188.58 105.06 L 1191.64 211.97 L 1194.69 118.46 L 1197.75 157.88 L 1200.80 134.63 L 1203.85 101.53 L 1206.91 101.27 L 1209.96 101.27 L 1213.02 352.74" fill="none" stroke="#2563eb" stroke-width="2.2" stroke-linejoin="round" stroke-linecap="round"/>
<path d="M 1219.13 353.49 L 1222.18 353.49 L 1225.24 353.75 L 1228.29 353.24 L 1231.35 352.74 L 1234.40 353.49 L 1237.45 353.24 L 1240.51 353.24 L 1243.56 353.49 L 1246.62 352.99 L 1249.67 353.24 L 1252.73 352.99 L 1255.78 353.24 L 1258.84 352.74 L 1261.89 352.99 L 1264.95 352.99 L 1268.00 352.99 L 1271.05 352.99 L 1274.11 352.99 L 1277.16 353.24 L 1280.22 352.99 L 1283.27 352.74 L 1286.33 350.46 L 1289.38 352.48 L 1292.44 352.48 L 1295.49 352.48 L 1298.55 352.74 L 1301.60 352.74 L 1304.65 352.74 L 1307.71 352.74 L 1310.76 352.48 L 1313.82 352.23 L 1316.87 352.74 L 1319.93 352.48 L 1322.98 352.48 L 1326.04 352.48 L 1329.09 346.92 L 1332.15 351.73 L 1335.20 352.74 L 1338.25 342.63 L 1341.31 351.98 L 1344.36 352.48 L 1347.42 352.23 L 1350.47 352.48 L 1353.53 352.23 L 1356.58 351.73 L 1359.64 328.73 L 1362.69 351.98 L 1365.75 351.73 L 1368.80 351.73 L 1371.85 346.42 L 1374.91 351.98 L 1377.96 351.47 L 1381.02 351.73 L 1384.07 351.98 L 1387.13 351.73 L 1390.18 350.97 L 1393.24 338.58 L 1396.29 351.47 L 1399.35 351.73 L 1402.40 351.73 L 1405.45 351.47 L 1408.51 351.22 L 1411.56 341.11 L 1414.62 351.22 L 1417.67 328.73 L 1420.73 350.97 L 1423.78 351.47 L 1426.84 342.12 L 1429.89 351.73 L 1432.95 351.22 L 1436.00 350.97 L 1439.05 350.97 L 1442.11 337.32 L 1445.16 351.22 L 1448.22 330.50 L 1451.27 328.73 L 1454.33 350.97 L 1457.38 328.73 L 1460.44 351.22 L 1463.49 328.98 L 1466.55 333.02 L 1469.60 329.23 L 1472.65 350.46 L 1475.71 328.98 L 1478.76 328.73 L 1481.82 350.21 L 1484.87 328.98 L 1487.93 328.73 L 1490.98 334.03 L 1490.98 354.00 L 1219.13 354.00 Z" fill="#c2410c" opacity="0.08"/>
<path d="M 1219.13 353.49 L 1222.18 353.49 L 1225.24 353.75 L 1228.29 353.24 L 1231.35 352.74 L 1234.40 353.49 L 1237.45 353.24 L 1240.51 353.24 L 1243.56 353.49 L 1246.62 352.99 L 1249.67 353.24 L 1252.73 352.99 L 1255.78 353.24 L 1258.84 352.74 L 1261.89 352.99 L 1264.95 352.99 L 1268.00 352.99 L 1271.05 352.99 L 1274.11 352.99 L 1277.16 353.24 L 1280.22 352.99 L 1283.27 352.74 L 1286.33 350.46 L 1289.38 352.48 L 1292.44 352.48 L 1295.49 352.48 L 1298.55 352.74 L 1301.60 352.74 L 1304.65 352.74 L 1307.71 352.74 L 1310.76 352.48 L 1313.82 352.23 L 1316.87 352.74 L 1319.93 352.48 L 1322.98 352.48 L 1326.04 352.48 L 1329.09 346.92 L 1332.15 351.73 L 1335.20 352.74 L 1338.25 342.63 L 1341.31 351.98 L 1344.36 352.48 L 1347.42 352.23 L 1350.47 352.48 L 1353.53 352.23 L 1356.58 351.73 L 1359.64 328.73 L 1362.69 351.98 L 1365.75 351.73 L 1368.80 351.73 L 1371.85 346.42 L 1374.91 351.98 L 1377.96 351.47 L 1381.02 351.73 L 1384.07 351.98 L 1387.13 351.73 L 1390.18 350.97 L 1393.24 338.58 L 1396.29 351.47 L 1399.35 351.73 L 1402.40 351.73 L 1405.45 351.47 L 1408.51 351.22 L 1411.56 341.11 L 1414.62 351.22 L 1417.67 328.73 L 1420.73 350.97 L 1423.78 351.47 L 1426.84 342.12 L 1429.89 351.73 L 1432.95 351.22 L 1436.00 350.97 L 1439.05 350.97 L 1442.11 337.32 L 1445.16 351.22 L 1448.22 330.50 L 1451.27 328.73 L 1454.33 350.97 L 1457.38 328.73 L 1460.44 351.22 L 1463.49 328.98 L 1466.55 333.02 L 1469.60 329.23 L 1472.65 350.46 L 1475.71 328.98 L 1478.76 328.73 L 1481.82 350.21 L 1484.87 328.98 L 1487.93 328.73 L 1490.98 334.03" fill="none" stroke="#c2410c" stroke-width="2.2" stroke-linejoin="round" stroke-linecap="round"/>
<path d="M 1497.09 353.49 L 1500.15 353.49 L 1503.20 352.99 L 1506.25 353.24 L 1509.31 353.49 L 1512.36 353.49 L 1515.42 352.74 L 1518.47 353.49 L 1521.53 353.24 L 1524.58 352.99 L 1527.64 353.24 L 1530.69 352.74 L 1533.75 353.24 L 1536.80 353.49 L 1539.85 352.99 L 1542.91 352.74 L 1545.96 353.24 L 1549.02 352.23 L 1552.07 352.74 L 1555.13 352.99 L 1558.18 352.99 L 1561.24 352.99 L 1564.29 350.97 L 1567.35 352.74 L 1570.40 352.99 L 1573.45 345.15 L 1576.51 347.18 L 1579.56 352.99 L 1582.62 352.48 L 1585.67 347.43 L 1588.73 352.48 L 1591.78 352.23 L 1594.84 352.48 L 1597.89 347.68 L 1600.95 352.23 L 1604.00 351.73 L 1607.05 352.23 L 1610.11 346.67 L 1613.16 352.23 L 1616.22 349.70 L 1619.27 350.46 L 1622.33 351.98 L 1625.38 352.48 L 1628.44 352.23 L 1631.49 351.98 L 1634.55 341.62 L 1637.60 352.23 L 1640.65 351.98 L 1643.71 334.29 L 1646.76 351.98 L 1649.82 351.98 L 1652.87 351.22 L 1655.93 351.98 L 1658.98 351.73 L 1662.04 333.78 L 1665.09 351.73 L 1668.15 351.98 L 1671.20 338.33 L 1674.25 351.98 L 1677.31 351.73 L 1680.36 350.97 L 1683.42 351.47 L 1686.47 351.73 L 1689.53 351.73 L 1692.58 350.21 L 1695.64 334.03 L 1698.69 351.98 L 1701.75 351.73 L 1704.80 339.59 L 1707.85 350.71 L 1710.91 350.97 L 1713.96 350.71 L 1717.02 350.97 L 1720.07 328.47 L 1723.13 315.08 L 1726.18 281.72 L 1729.24 253.92 L 1732.29 245.07 L 1735.35 199.33 L 1738.40 197.81 L 1741.45 106.58 L 1744.51 138.17 L 1747.56 101.53 L 1750.62 102.54 L 1753.67 144.74 L 1756.73 113.66 L 1759.78 183.91 L 1762.84 101.27 L 1765.89 101.78 L 1768.95 117.95 L 1772.00 340.35 L 1772.00 354.00 L 1497.09 354.00 Z" fill="#1d4ed8" opacity="0.08"/>
<path d="M 1497.09 353.49 L 1500.15 353.49 L 1503.20 352.99 L 1506.25 353.24 L 1509.31 353.49 L 1512.36 353.49 L 1515.42 352.74 L 1518.47 353.49 L 1521.53 353.24 L 1524.58 352.99 L 1527.64 353.24 L 1530.69 352.74 L 1533.75 353.24 L 1536.80 353.49 L 1539.85 352.99 L 1542.91 352.74 L 1545.96 353.24 L 1549.02 352.23 L 1552.07 352.74 L 1555.13 352.99 L 1558.18 352.99 L 1561.24 352.99 L 1564.29 350.97 L 1567.35 352.74 L 1570.40 352.99 L 1573.45 345.15 L 1576.51 347.18 L 1579.56 352.99 L 1582.62 352.48 L 1585.67 347.43 L 1588.73 352.48 L 1591.78 352.23 L 1594.84 352.48 L 1597.89 347.68 L 1600.95 352.23 L 1604.00 351.73 L 1607.05 352.23 L 1610.11 346.67 L 1613.16 352.23 L 1616.22 349.70 L 1619.27 350.46 L 1622.33 351.98 L 1625.38 352.48 L 1628.44 352.23 L 1631.49 351.98 L 1634.55 341.62 L 1637.60 352.23 L 1640.65 351.98 L 1643.71 334.29 L 1646.76 351.98 L 1649.82 351.98 L 1652.87 351.22 L 1655.93 351.98 L 1658.98 351.73 L 1662.04 333.78 L 1665.09 351.73 L 1668.15 351.98 L 1671.20 338.33 L 1674.25 351.98 L 1677.31 351.73 L 1680.36 350.97 L 1683.42 351.47 L 1686.47 351.73 L 1689.53 351.73 L 1692.58 350.21 L 1695.64 334.03 L 1698.69 351.98 L 1701.75 351.73 L 1704.80 339.59 L 1707.85 350.71 L 1710.91 350.97 L 1713.96 350.71 L 1717.02 350.97 L 1720.07 328.47 L 1723.13 315.08 L 1726.18 281.72 L 1729.24 253.92 L 1732.29 245.07 L 1735.35 199.33 L 1738.40 197.81 L 1741.45 106.58 L 1744.51 138.17 L 1747.56 101.53 L 1750.62 102.54 L 1753.67 144.74 L 1756.73 113.66 L 1759.78 183.91 L 1762.84 101.27 L 1765.89 101.78 L 1768.95 117.95 L 1772.00 340.35" fill="none" stroke="#1d4ed8" stroke-width="2.2" stroke-linejoin="round" stroke-linecap="round"/>
<line x1="92" y1="402" x2="114" y2="402" stroke="#fb923c" stroke-width="3"/>
<text class="theme-muted" x="122.00" y="406.00" fill="#64748b" font-family="Inter,system-ui,sans-serif" font-size="8" font-weight="400" text-anchor="start">Active VUs | 20260920T121827Z-blog_tls_linear_peak-s2-vm-go | s2-vm-go | go | linear-1</text>
<line x1="639" y1="402" x2="661" y2="402" stroke="#f97316" stroke-width="3"/>
<text class="theme-muted" x="669.00" y="406.00" fill="#64748b" font-family="Inter,system-ui,sans-serif" font-size="8" font-weight="400" text-anchor="start">Active VUs | 20260920T121827Z-blog_tls_linear_peak-s2-vm-go | s2-vm-go | go | linear-3</text>
<line x1="1186" y1="402" x2="1208" y2="402" stroke="#c2410c" stroke-width="3"/>
<text class="theme-muted" x="1216.00" y="406.00" fill="#64748b" font-family="Inter,system-ui,sans-serif" font-size="8" font-weight="400" text-anchor="start">Active VUs | 20260920T121827Z-blog_tls_linear_peak-s2-vm-go | s2-vm-go | go | linear-5</text>
<line x1="92" y1="426" x2="114" y2="426" stroke="#60a5fa" stroke-width="3"/>
<text class="theme-muted" x="122.00" y="430.00" fill="#64748b" font-family="Inter,system-ui,sans-serif" font-size="8" font-weight="400" text-anchor="start">Active VUs | 20260920T121827Z-blog_tls_linear_peak-s2-vm-go | s2-vm-go | go | linear-2</text>
<line x1="639" y1="426" x2="661" y2="426" stroke="#2563eb" stroke-width="3"/>
<text class="theme-muted" x="669.00" y="430.00" fill="#64748b" font-family="Inter,system-ui,sans-serif" font-size="8" font-weight="400" text-anchor="start">Active VUs | 20260920T121827Z-blog_tls_linear_peak-s2-vm-go | s2-vm-go | go | linear-4</text>
<line x1="1186" y1="426" x2="1208" y2="426" stroke="#1d4ed8" stroke-width="3"/>
<text class="theme-muted" x="1216.00" y="430.00" fill="#64748b" font-family="Inter,system-ui,sans-serif" font-size="8" font-weight="400" text-anchor="start">Active VUs | 20260920T121827Z-blog_tls_linear_peak-s2-vm-go | s2-vm-go | go | linear-6</text>
</svg>
