<?xml version="1.0" encoding="UTF-8"?>
<svg xmlns="http://www.w3.org/2000/svg" width="1800" height="620" viewBox="0 0 1800 620" role="img" aria-labelledby="title desc">
<metadata>{&quot;scenario&quot;: &quot;s2-vm&quot;, &quot;tls_version&quot;: &quot;1.3&quot;, &quot;tls_group&quot;: &quot;X25519&quot;, &quot;run_ids&quot;: {&quot;dotnet&quot;: &quot;20260923T095327Z-blog_tls_linear_peak-s2-vm-net&quot;, &quot;java&quot;: &quot;20260923T100607Z-blog_tls_linear_peak-s2-vm-java&quot;, &quot;go&quot;: &quot;20260923T101833Z-blog_tls_linear_peak-s2-vm-go&quot;, &quot;rust&quot;: &quot;20260923T103553Z-blog_tls_linear_peak-s2-vm-rust&quot;}, &quot;source_start&quot;: &quot;2026-09-20T00:00:00Z&quot;, &quot;source_stop&quot;: &quot;2026-09-23T14:54:35Z&quot;}</metadata>
<style>
  .theme-bg { fill: #ffffff; }
  .theme-plot { fill: #f8fafc; }
  .theme-text { fill: #111827; }
  .theme-muted { fill: #64748b; }
  .theme-grid { stroke: #e2e8f0; }
  .theme-border { stroke: #cbd5e1; }
  @media (prefers-color-scheme: dark) {
    .theme-bg { fill: #1f2227; }
    .theme-plot { fill: #202328; }
    .theme-text { fill: #d8d9da; }
    .theme-muted { fill: #a8abb2; }
    .theme-grid { stroke: #34383f; }
    .theme-border { stroke: #454a52; }
  }
</style>
<title id="title">High-pressure linear TCP connection time - Mean (per 1-second window)</title>
<desc id="desc">s2-vm · TLS 1.3 · X25519 · 1-second windows · whole Run ID timeline · logarithmic Y scale</desc>
<rect class="theme-bg" width="1800" height="620" rx="12" fill="#ffffff"/>
<text class="theme-text" x="105.00" y="34.00" fill="#111827" font-family="Inter,system-ui,sans-serif" font-size="24" font-weight="700" text-anchor="start">High-pressure linear TCP connection time - Mean (per 1-second window)</text>
<text class="theme-muted" x="105.00" y="61.00" fill="#64748b" font-family="Inter,system-ui,sans-serif" font-size="13" font-weight="400" text-anchor="start">s2-vm · TLS 1.3 · X25519 · 1-second windows · whole Run ID timeline · logarithmic Y scale</text>
<rect class="theme-plot theme-border" x="105" y="92" width="1660" height="416" fill="#f8fafc" stroke="#cbd5e1"/>
<line class="theme-grid" x1="105" y1="508.00" x2="1765" y2="508.00" stroke="#e2e8f0"/>
<text class="theme-muted" x="93.00" y="512.00" fill="#64748b" font-family="Inter,system-ui,sans-serif" font-size="11" font-weight="400" text-anchor="end">1</text>
<line class="theme-grid" x1="105" y1="404.00" x2="1765" y2="404.00" stroke="#e2e8f0"/>
<text class="theme-muted" x="93.00" y="408.00" fill="#64748b" font-family="Inter,system-ui,sans-serif" font-size="11" font-weight="400" text-anchor="end">10</text>
<line class="theme-grid" x1="105" y1="300.00" x2="1765" y2="300.00" stroke="#e2e8f0"/>
<text class="theme-muted" x="93.00" y="304.00" fill="#64748b" font-family="Inter,system-ui,sans-serif" font-size="11" font-weight="400" text-anchor="end">100</text>
<line class="theme-grid" x1="105" y1="196.00" x2="1765" y2="196.00" stroke="#e2e8f0"/>
<text class="theme-muted" x="93.00" y="200.00" fill="#64748b" font-family="Inter,system-ui,sans-serif" font-size="11" font-weight="400" text-anchor="end">1k</text>
<line class="theme-grid" x1="105" y1="92.00" x2="1765" y2="92.00" stroke="#e2e8f0"/>
<text class="theme-muted" x="93.00" y="96.00" fill="#64748b" font-family="Inter,system-ui,sans-serif" font-size="11" font-weight="400" text-anchor="end">10k</text>
<line class="theme-grid" x1="105.00" y1="92" x2="105.00" y2="508" stroke="#e2e8f0"/>
<text class="theme-muted" x="105.00" y="532.00" fill="#64748b" font-family="Inter,system-ui,sans-serif" font-size="11" font-weight="400" text-anchor="middle">0s</text>
<line class="theme-grid" x1="381.67" y1="92" x2="381.67" y2="508" stroke="#e2e8f0"/>
<text class="theme-muted" x="381.67" y="532.00" fill="#64748b" font-family="Inter,system-ui,sans-serif" font-size="11" font-weight="400" text-anchor="middle">100s</text>
<line class="theme-grid" x1="658.33" y1="92" x2="658.33" y2="508" stroke="#e2e8f0"/>
<text class="theme-muted" x="658.33" y="532.00" fill="#64748b" font-family="Inter,system-ui,sans-serif" font-size="11" font-weight="400" text-anchor="middle">200s</text>
<line class="theme-grid" x1="935.00" y1="92" x2="935.00" y2="508" stroke="#e2e8f0"/>
<text class="theme-muted" x="935.00" y="532.00" fill="#64748b" font-family="Inter,system-ui,sans-serif" font-size="11" font-weight="400" text-anchor="middle">300s</text>
<line class="theme-grid" x1="1211.67" y1="92" x2="1211.67" y2="508" stroke="#e2e8f0"/>
<text class="theme-muted" x="1211.67" y="532.00" fill="#64748b" font-family="Inter,system-ui,sans-serif" font-size="11" font-weight="400" text-anchor="middle">400s</text>
<line class="theme-grid" x1="1488.33" y1="92" x2="1488.33" y2="508" stroke="#e2e8f0"/>
<text class="theme-muted" x="1488.33" y="532.00" fill="#64748b" font-family="Inter,system-ui,sans-serif" font-size="11" font-weight="400" text-anchor="middle">500s</text>
<line class="theme-grid" x1="1765.00" y1="92" x2="1765.00" y2="508" stroke="#e2e8f0"/>
<text class="theme-muted" x="1765.00" y="532.00" fill="#64748b" font-family="Inter,system-ui,sans-serif" font-size="11" font-weight="400" text-anchor="middle">600s</text>
<path d="M 105.00 420.26 L 107.77 435.01 L 110.53 437.26 L 113.30 448.93 L 116.07 445.03 L 118.83 450.70 L 121.60 457.93 L 124.37 457.73 L 127.13 458.72 L 129.90 459.63 L 132.67 462.48 L 135.43 464.09 L 138.20 466.79 L 140.97 468.56 L 143.73 464.23 L 146.50 469.64 L 149.27 469.52 L 152.03 470.89 L 154.80 466.70 L 157.57 464.10 L 160.33 472.18 L 163.10 467.70 L 165.87 463.71 L 168.63 468.86 L 171.40 470.61 L 174.17 468.86 L 176.93 473.58 L 179.70 464.98 L 182.47 473.13 L 185.23 465.28 L 188.00 467.91 L 190.77 472.59 L 193.53 466.30 L 196.30 471.00 L 199.07 464.95 L 201.83 479.55 L 204.60 458.70 L 207.37 476.48 L 210.13 462.99 L 212.90 471.97 L 215.67 464.10 L 218.43 470.53 L 221.20 468.27 L 223.97 465.96 L 226.73 469.08 L 229.50 462.46 L 232.27 464.72 L 235.03 462.19 L 237.80 463.87 L 240.57 457.77 L 243.33 472.47 L 246.10 462.53 L 248.87 471.49 L 251.63 456.68 L 254.40 469.07 L 257.17 456.68 L 259.93 469.93 L 262.70 447.94 L 265.47 454.31 L 268.23 455.00 L 271.00 460.81 L 273.77 451.57 L 276.53 450.09 L 279.30 415.52 L 282.07 364.43 L 284.83 399.29 L 287.60 389.12 L 290.37 388.73 L 293.13 382.70 L 295.90 409.11 L 298.67 416.20 L 301.43 389.24 L 304.20 389.27 L 306.97 406.13 L 309.73 440.84 L 312.50 405.02 L 315.27 399.97 L 318.03 406.32 L 320.80 445.67 L 323.57 402.08 L 326.33 397.68 L 329.10 400.49 L 331.87 458.48 L 334.63 423.45 L 337.40 404.64 L 340.17 405.34 L 342.93 454.32 L 345.70 429.21 L 348.47 407.96 L 351.23 407.38 L 354.00 403.73 L 356.77 419.42 L 359.53 428.11 L 362.30 436.39 L 365.07 439.30 L 367.83 444.75 L 370.60 447.39 L 373.37 453.40 L 376.13 457.55 L 378.90 455.47 L 381.67 458.86 L 384.43 465.05 L 387.20 455.36 L 389.97 469.57 L 392.73 459.69 L 395.50 468.70 L 398.27 459.82 L 401.03 465.04 L 403.80 454.95 L 406.57 464.07 L 409.33 467.28 L 412.10 464.12 L 414.87 468.01 L 417.63 457.98 L 420.40 467.40 L 423.17 462.06 L 425.93 473.76 L 428.70 466.27 L 431.47 471.00 L 434.23 461.44 L 437.00 468.48 L 439.77 468.38 L 442.53 472.26 L 445.30 466.87 L 448.07 466.16 L 450.83 461.53 L 453.60 458.40 L 456.37 462.15 L 459.13 455.44 L 461.90 472.20 L 464.67 453.70 L 467.43 467.04 L 470.20 459.22 L 472.97 462.25 L 475.73 451.66 L 478.50 462.43 L 481.27 460.56 L 484.03 453.96 L 486.80 459.03 L 489.57 454.80 L 492.33 463.83 L 495.10 449.08 L 497.87 468.29 L 500.63 451.97 L 503.40 460.64 L 506.17 450.09 L 508.93 455.52 L 511.70 451.96 L 514.47 460.56 L 517.23 450.51 L 520.00 449.07 L 522.77 452.18 L 525.53 459.51 L 528.30 434.65 L 531.07 381.97 L 533.83 388.24 L 536.60 373.81 L 539.37 360.48 L 542.13 360.24 L 544.90 376.96 L 547.67 414.17 L 550.43 379.48 L 553.20 375.98 L 555.97 379.00 L 558.73 429.30 L 561.50 392.99 L 564.27 394.98 L 567.03 401.68 L 569.80 429.71 L 572.57 400.86 L 575.33 395.38 L 578.10 392.62 L 580.87 441.45 L 583.63 344.66 L 586.40 311.87 L 589.17 407.79 L 591.93 327.96 L 594.70 381.88 L 597.47 416.67 L 600.23 421.66 L 603.00 420.02 L 605.77 194.30 L 608.53 410.43 L 611.30 420.57 L 614.07 427.83 L 616.83 433.71 L 619.60 442.72 L 622.37 423.90 L 625.13 453.15 L 627.90 447.62 L 630.67 457.46 L 633.43 455.47 L 636.20 454.56 L 638.97 460.49 L 641.73 460.95 L 644.50 466.48 L 647.27 464.28 L 650.03 467.60 L 652.80 464.48 L 655.57 468.52 L 658.33 468.40 L 661.10 464.46 L 663.87 464.51 L 666.63 466.10 L 669.40 458.10 L 672.17 465.11 L 674.93 464.45 L 677.70 460.93 L 680.47 473.18 L 683.23 462.19 L 686.00 467.52 L 688.77 468.22 L 691.53 470.66 L 694.30 463.75 L 697.07 463.96 L 699.83 462.69 L 702.60 467.24 L 705.37 470.68 L 708.13 459.25 L 710.90 468.45 L 713.67 457.94 L 716.43 471.34 L 719.20 463.53 L 721.97 457.77 L 724.73 458.28 L 727.50 455.43 L 730.27 455.02 L 733.03 461.15 L 735.80 458.12 L 738.57 460.10 L 741.33 449.87 L 744.10 455.31 L 746.87 452.08 L 749.63 460.58 L 752.40 457.28 L 755.17 457.94 L 757.93 448.92 L 760.70 447.12 L 763.47 448.83 L 766.23 453.54 L 769.00 459.96 L 771.77 447.23 L 774.53 454.13 L 777.30 430.57 L 780.07 450.12 L 782.83 440.09 L 785.60 386.85 L 788.37 363.95 L 791.13 366.76 L 793.90 367.49 L 796.67 417.46 L 799.43 385.17 L 802.20 387.01 L 804.97 387.71 L 807.73 436.76 L 810.50 392.86 L 813.27 398.51 L 816.03 399.54 L 818.80 433.26 L 821.57 406.38 L 824.33 396.15 L 827.10 399.27 L 829.87 445.02 L 832.63 425.47 L 835.40 398.24 L 838.17 406.38 L 840.93 436.05 L 843.70 435.15 L 846.47 396.00 L 849.23 399.53 L 852.00 427.48 L 854.77 436.35 L 857.53 409.45 L 860.30 404.89 L 863.07 420.39 L 865.83 438.60 L 868.60 442.51 L 871.37 444.96 L 874.13 444.22 L 876.90 453.99 L 879.67 455.18 L 882.43 457.27 L 885.20 457.98 L 887.97 458.57 L 890.73 464.90 L 893.50 461.34 L 896.27 459.58 L 899.03 464.78 L 901.80 458.56 L 904.57 468.49 L 907.33 466.02 L 910.10 460.96 L 912.87 466.36 L 915.63 471.05 L 918.40 461.04 L 921.17 472.16 L 923.93 465.95 L 926.70 464.35 L 929.47 460.15 L 932.23 463.84 L 935.00 465.39 L 937.77 462.90 L 940.53 472.93 L 943.30 466.54 L 946.07 472.07 L 948.83 460.92 L 951.60 463.28 L 954.37 460.16 L 957.13 464.49 L 959.90 460.28 L 962.67 458.47 L 965.43 460.98 L 968.20 463.73 L 970.97 459.55 L 973.73 449.54 L 976.50 452.10 L 979.27 458.77 L 982.03 457.26 L 984.80 449.87 L 987.57 460.92 L 990.33 450.41 L 993.10 467.64 L 995.87 444.93 L 998.63 461.86 L 1001.40 448.01 L 1004.17 457.94 L 1006.93 445.30 L 1009.70 460.14 L 1012.47 446.89 L 1015.23 448.84 L 1018.00 436.09 L 1020.77 445.03 L 1023.53 451.21 L 1026.30 449.26 L 1029.07 460.18 L 1031.83 431.86 L 1034.60 410.18 L 1037.37 368.46 L 1040.13 364.48 L 1042.90 363.00 L 1045.67 410.75 L 1048.43 372.49 L 1051.20 376.19 L 1053.97 375.94 L 1056.73 423.00 L 1059.50 371.31 L 1062.27 372.13 L 1065.03 383.46 L 1067.80 440.03 L 1070.57 400.16 L 1073.33 378.35 L 1076.10 391.62 L 1078.87 427.97 L 1081.63 385.41 L 1084.40 348.95 L 1087.17 408.84 L 1089.93 424.87 L 1092.70 436.46 L 1095.47 303.16 L 1098.23 426.29 L 1101.00 417.12 L 1103.77 445.51 L 1106.53 381.31 L 1109.30 195.01 L 1112.07 409.41 L 1114.83 426.41 L 1117.60 427.02 L 1120.37 438.42 L 1123.13 441.16 L 1125.90 446.55 L 1128.67 452.34 L 1131.43 454.51 L 1134.20 458.04 L 1136.97 456.50 L 1139.73 459.38 L 1142.50 454.89 L 1145.27 465.58 L 1148.03 455.63 L 1150.80 466.16 L 1153.57 458.54 L 1156.33 461.25 L 1159.10 470.93 L 1161.87 469.87 L 1164.63 464.73 L 1167.40 459.13 L 1170.17 471.06 L 1172.93 455.90 L 1175.70 472.70 L 1178.47 464.79 L 1181.23 464.91 L 1184.00 465.88 L 1186.77 474.41 L 1189.53 463.07 L 1192.30 460.27 L 1195.07 462.81 L 1197.83 458.86 L 1200.60 457.98 L 1203.37 461.61 L 1206.13 461.43 L 1208.90 454.19 L 1211.67 462.78 L 1214.43 460.42 L 1217.20 463.51 L 1219.97 459.22 L 1222.73 469.81 L 1225.50 454.77 L 1228.27 459.78 L 1231.03 462.94 L 1233.80 454.38 L 1236.57 463.40 L 1239.33 458.95 L 1242.10 462.44 L 1244.87 452.33 L 1247.63 455.69 L 1250.40 448.48 L 1253.17 461.65 L 1255.93 455.21 L 1258.70 456.45 L 1261.47 451.38 L 1264.23 461.45 L 1267.00 449.60 L 1269.77 454.33 L 1272.53 456.33 L 1275.30 456.96 L 1278.07 445.98 L 1280.83 463.24 L 1283.60 438.08 L 1286.37 430.56 L 1289.13 361.95 L 1291.90 363.97 L 1294.67 415.10 L 1297.43 397.57 L 1300.20 393.85 L 1302.97 398.29 L 1305.73 436.13 L 1308.50 383.38 L 1311.27 384.18 L 1314.03 388.94 L 1316.80 433.39 L 1319.57 415.55 L 1322.33 408.92 L 1325.10 410.59 L 1327.87 438.90 L 1330.63 428.65 L 1333.40 398.82 L 1336.17 399.23 L 1338.93 424.74 L 1341.70 445.94 L 1344.47 398.59 L 1347.23 395.86 L 1350.00 420.55 L 1352.77 464.15 L 1355.53 411.40 L 1358.30 396.21 L 1361.07 400.39 L 1363.83 420.57 L 1366.60 425.74 L 1369.37 435.86 L 1372.13 440.93 L 1374.90 444.05 L 1377.67 446.32 L 1380.43 452.56 L 1383.20 455.47 L 1385.97 453.94 L 1388.73 456.96 L 1391.50 458.49 L 1394.27 458.16 L 1397.03 464.68 L 1399.80 466.58 L 1402.57 457.75 L 1405.33 470.26 L 1408.10 461.77 L 1410.87 471.16 L 1413.63 465.49 L 1416.40 466.73 L 1419.17 462.91 L 1421.93 468.15 L 1424.70 462.08 L 1427.47 456.44 L 1430.23 472.51 L 1433.00 466.78 L 1435.77 474.13 L 1438.53 459.72 L 1441.30 464.12 L 1444.07 460.02 L 1446.83 467.84 L 1449.60 461.32 L 1452.37 468.04 L 1455.13 462.25 L 1457.90 470.56 L 1460.67 466.12 L 1463.43 461.73 L 1466.20 466.57 L 1468.97 464.97 L 1471.73 458.63 L 1474.50 457.28 L 1477.27 460.72 L 1480.03 461.94 L 1482.80 460.68 L 1485.57 447.34 L 1488.33 460.05 L 1491.10 456.32 L 1493.87 462.65 L 1496.63 445.79 L 1499.40 463.26 L 1502.17 446.71 L 1504.93 463.30 L 1507.70 450.48 L 1510.47 460.45 L 1513.23 452.67 L 1516.00 454.64 L 1518.77 458.32 L 1521.53 446.78 L 1524.30 455.07 L 1527.07 451.47 L 1529.83 459.35 L 1532.60 443.70 L 1535.37 441.45 L 1538.13 373.36 L 1540.90 362.87 L 1543.67 404.63 L 1546.43 383.87 L 1549.20 386.41 L 1551.97 385.09 L 1554.73 409.09 L 1557.50 413.54 L 1560.27 412.30 L 1563.03 417.85 L 1565.80 417.04 L 1568.57 422.92 L 1571.33 396.84 L 1574.10 406.83 L 1576.87 425.41 L 1579.63 430.62 L 1582.40 361.81 L 1585.17 403.98 L 1587.93 431.55 L 1590.70 441.62 L 1593.47 305.39 L 1596.23 409.03 L 1599.00 417.11 L 1601.77 441.37 L 1604.53 423.93 L 1607.30 420.17 L 1610.07 430.07" fill="none" stroke="#6d4aff" stroke-width="2.5" stroke-linejoin="round" stroke-linecap="round"/>
<path d="M 105.00 420.91 L 107.77 429.10 L 110.53 430.99 L 113.30 445.54 L 116.07 444.02 L 118.83 452.75 L 121.60 451.41 L 124.37 459.04 L 127.13 453.86 L 129.90 453.97 L 132.67 462.02 L 135.43 455.17 L 138.20 458.53 L 140.97 456.98 L 143.73 465.82 L 146.50 456.93 L 149.27 463.72 L 152.03 469.65 L 154.80 459.48 L 157.57 462.72 L 160.33 462.62 L 163.10 470.76 L 165.87 464.93 L 168.63 465.94 L 171.40 455.87 L 174.17 472.22 L 176.93 463.48 L 179.70 471.72 L 182.47 463.93 L 185.23 469.54 L 188.00 458.39 L 190.77 464.79 L 193.53 462.60 L 196.30 468.84 L 199.07 472.74 L 201.83 452.03 L 204.60 467.99 L 207.37 459.07 L 210.13 469.32 L 212.90 460.91 L 215.67 473.23 L 218.43 458.78 L 221.20 472.00 L 223.97 464.58 L 226.73 457.96 L 229.50 456.76 L 232.27 474.04 L 235.03 461.70 L 237.80 463.69 L 240.57 462.33 L 243.33 458.86 L 246.10 463.49 L 248.87 456.15 L 251.63 465.51 L 254.40 459.75 L 257.17 463.88 L 259.93 457.89 L 262.70 456.74 L 265.47 459.56 L 268.23 465.70 L 271.00 450.26 L 273.77 452.26 L 276.53 445.84 L 279.30 453.84 L 282.07 447.26 L 284.83 449.69 L 287.60 447.79 L 290.37 457.61 L 293.13 431.65 L 295.90 450.88 L 298.67 436.48 L 301.43 458.31 L 304.20 443.79 L 306.97 459.18 L 309.73 439.85 L 312.50 450.07 L 315.27 439.58 L 318.03 456.08 L 320.80 449.20 L 323.57 448.68 L 326.33 353.36 L 329.10 435.78 L 331.87 465.04 L 334.63 373.59 L 337.40 473.55 L 340.17 371.85 L 342.93 472.95 L 345.70 370.19 L 348.47 400.34 L 351.23 382.21 L 354.00 194.55 L 356.77 414.96 L 359.53 415.35 L 362.30 426.01 L 365.07 411.32 L 367.83 433.92 L 370.60 444.73 L 373.37 452.61 L 376.13 452.57 L 378.90 449.00 L 381.67 458.97 L 384.43 454.96 L 387.20 462.07 L 389.97 461.98 L 392.73 462.72 L 395.50 463.49 L 398.27 462.26 L 401.03 464.51 L 403.80 461.35 L 406.57 457.70 L 409.33 456.50 L 412.10 468.03 L 414.87 462.60 L 417.63 467.71 L 420.40 471.41 L 423.17 462.37 L 425.93 461.82 L 428.70 468.59 L 431.47 467.92 L 434.23 463.40 L 437.00 463.72 L 439.77 466.18 L 442.53 462.26 L 445.30 462.74 L 448.07 466.84 L 450.83 463.19 L 453.60 462.91 L 456.37 460.53 L 459.13 462.86 L 461.90 454.50 L 464.67 462.14 L 467.43 458.10 L 470.20 458.40 L 472.97 458.27 L 475.73 459.32 L 478.50 465.02 L 481.27 449.24 L 484.03 464.49 L 486.80 450.51 L 489.57 455.27 L 492.33 457.19 L 495.10 458.97 L 497.87 454.44 L 500.63 464.40 L 503.40 456.75 L 506.17 452.99 L 508.93 444.22 L 511.70 435.18 L 514.47 457.06 L 517.23 448.68 L 520.00 459.05 L 522.77 443.22 L 525.53 450.18 L 528.30 443.04 L 531.07 453.31 L 533.83 446.67 L 536.60 447.25 L 539.37 445.96 L 542.13 442.69 L 544.90 444.62 L 547.67 444.20 L 550.43 442.90 L 553.20 448.33 L 555.97 442.34 L 558.73 442.89 L 561.50 445.31 L 564.27 446.71 L 567.03 448.32 L 569.80 342.13 L 572.57 331.10 L 575.33 340.13 L 578.10 286.64 L 580.87 327.45 L 583.63 288.56 L 586.40 259.79 L 589.17 275.06 L 591.93 304.99 L 594.70 272.60 L 597.47 250.82 L 600.23 269.61 L 603.00 298.89 L 605.77 244.57 L 608.53 192.81 L 616.83 193.57 L 619.60 411.67 L 622.37 420.91 L 625.13 434.06 L 627.90 448.70 L 630.67 444.98 L 633.43 446.71 L 636.20 453.57 L 638.97 448.01 L 641.73 458.99 L 644.50 457.19 L 647.27 462.18 L 650.03 460.43 L 652.80 466.38 L 655.57 462.58 L 658.33 463.65 L 661.10 463.51 L 663.87 467.62 L 666.63 471.57 L 669.40 462.20 L 672.17 469.96 L 674.93 466.24 L 677.70 469.26 L 680.47 466.58 L 683.23 468.88 L 686.00 470.70 L 688.77 471.75 L 691.53 467.06 L 694.30 465.60 L 697.07 468.88 L 699.83 457.53 L 702.60 472.45 L 705.37 461.62 L 708.13 470.25 L 710.90 471.35 L 713.67 467.23 L 716.43 460.20 L 719.20 453.96 L 721.97 463.24 L 724.73 454.15 L 727.50 467.21 L 730.27 455.36 L 733.03 469.44 L 735.80 452.93 L 738.57 455.42 L 741.33 449.61 L 744.10 458.20 L 746.87 461.35 L 749.63 449.48 L 752.40 446.01 L 755.17 455.95 L 757.93 465.32 L 760.70 454.37 L 763.47 465.01 L 766.23 439.88 L 769.00 462.74 L 771.77 449.75 L 774.53 452.74 L 777.30 451.31 L 780.07 451.85 L 782.83 450.04 L 785.60 456.38 L 788.37 450.35 L 791.13 444.92 L 793.90 457.89 L 796.67 443.65 L 799.43 445.64 L 802.20 454.26 L 804.97 449.97 L 807.73 454.34 L 810.50 438.50 L 813.27 450.38 L 816.03 449.88 L 818.80 451.45 L 821.57 456.81 L 824.33 446.07 L 827.10 450.79 L 829.87 442.91 L 832.63 448.85 L 835.40 388.46 L 838.17 392.38 L 840.93 470.46 L 843.70 368.90 L 846.47 465.93 L 849.23 369.73 L 852.00 352.46 L 854.77 477.15 L 857.53 366.18 L 860.30 483.51 L 863.07 361.06 L 865.83 360.26 L 868.60 358.92 L 871.37 414.60 L 874.13 415.06 L 876.90 427.60 L 879.67 439.20 L 882.43 447.68 L 885.20 443.84 L 887.97 452.50 L 890.73 457.19 L 893.50 446.95 L 896.27 459.63 L 899.03 457.79 L 901.80 465.19 L 904.57 460.62 L 907.33 463.28 L 910.10 467.20 L 912.87 468.69 L 915.63 469.58 L 918.40 468.65 L 921.17 470.86 L 923.93 469.91 L 926.70 457.41 L 929.47 468.48 L 932.23 453.59 L 935.00 466.63 L 937.77 463.20 L 940.53 467.86 L 943.30 472.35 L 946.07 471.39 L 948.83 462.73 L 951.60 471.91 L 954.37 460.26 L 957.13 470.78 L 959.90 466.00 L 962.67 469.39 L 965.43 463.76 L 968.20 454.82 L 970.97 459.57 L 973.73 451.00 L 976.50 464.55 L 979.27 452.76 L 982.03 472.15 L 984.80 462.56 L 987.57 461.74 L 990.33 460.46 L 993.10 458.40 L 995.87 463.66 L 998.63 451.60 L 1001.40 468.19 L 1004.17 450.17 L 1006.93 472.17 L 1009.70 458.78 L 1012.47 459.02 L 1015.23 454.13 L 1018.00 453.07 L 1020.77 454.73 L 1023.53 453.60 L 1026.30 447.47 L 1029.07 461.59 L 1031.83 448.92 L 1034.60 457.24 L 1037.37 444.87 L 1040.13 461.27 L 1042.90 452.02 L 1045.67 454.79 L 1048.43 450.54 L 1051.20 452.07 L 1053.97 441.25 L 1056.73 452.31 L 1059.50 449.25 L 1062.27 458.48 L 1065.03 447.11 L 1067.80 436.30 L 1070.57 437.76 L 1073.33 444.38 L 1076.10 448.25 L 1078.87 444.34 L 1081.63 334.85 L 1084.40 430.39 L 1087.17 320.71 L 1089.93 293.44 L 1092.70 310.73 L 1095.47 281.23 L 1098.23 267.62 L 1101.00 287.88 L 1103.77 278.53 L 1106.53 341.77 L 1109.30 275.77 L 1112.07 228.79 L 1114.83 260.62 L 1117.60 288.10 L 1120.37 194.06 L 1123.13 415.47 L 1125.90 415.76 L 1128.67 427.66 L 1131.43 439.75 L 1134.20 440.11 L 1136.97 447.54 L 1139.73 452.54 L 1142.50 456.96 L 1145.27 460.62 L 1148.03 456.22 L 1150.80 457.61 L 1153.57 461.30 L 1156.33 469.18 L 1159.10 461.41 L 1161.87 470.07 L 1164.63 462.60 L 1167.40 468.69 L 1170.17 469.25 L 1172.93 460.97 L 1175.70 454.95 L 1178.47 458.38 L 1181.23 473.84 L 1184.00 462.25 L 1186.77 470.16 L 1189.53 460.28 L 1192.30 460.71 L 1195.07 463.28 L 1197.83 455.75 L 1200.60 467.81 L 1203.37 470.93 L 1206.13 475.33 L 1208.90 458.58 L 1211.67 466.95 L 1214.43 459.28 L 1217.20 466.64 L 1219.97 468.03 L 1222.73 465.68 L 1225.50 465.55 L 1228.27 454.13 L 1231.03 462.90 L 1233.80 457.63 L 1236.57 469.59 L 1239.33 460.34 L 1242.10 458.30 L 1244.87 455.73 L 1247.63 463.05 L 1250.40 453.85 L 1253.17 460.47 L 1255.93 459.02 L 1258.70 460.79 L 1261.47 453.23 L 1264.23 452.21 L 1267.00 458.76 L 1269.77 455.69 L 1272.53 448.49 L 1275.30 446.57 L 1278.07 452.00 L 1280.83 444.58 L 1283.60 457.79 L 1286.37 453.04 L 1289.13 457.37 L 1291.90 445.46 L 1294.67 459.86 L 1297.43 450.51 L 1300.20 464.83 L 1302.97 450.76 L 1305.73 459.58 L 1308.50 442.16 L 1311.27 451.27 L 1314.03 445.69 L 1316.80 452.98 L 1319.57 450.20 L 1322.33 448.20 L 1325.10 445.22 L 1327.87 445.96 L 1330.63 450.03 L 1333.40 443.28 L 1336.17 458.73 L 1338.93 379.54 L 1341.70 399.86 L 1344.47 449.96 L 1347.23 359.48 L 1350.00 449.34 L 1352.77 359.34 L 1355.53 463.32 L 1358.30 360.35 L 1361.07 474.27 L 1363.83 366.40 L 1366.60 486.83 L 1369.37 362.35 L 1372.13 194.29 L 1374.90 408.05 L 1377.67 413.75 L 1380.43 427.42 L 1383.20 438.31 L 1385.97 447.69 L 1388.73 443.13 L 1391.50 453.69 L 1394.27 455.24 L 1397.03 456.16 L 1399.80 458.87 L 1402.57 459.62 L 1405.33 460.18 L 1408.10 459.43 L 1410.87 465.58 L 1413.63 463.77 L 1416.40 473.40 L 1419.17 462.62 L 1421.93 467.10 L 1424.70 468.29 L 1427.47 462.51 L 1430.23 467.12 L 1433.00 461.54 L 1435.77 467.98 L 1438.53 467.12 L 1441.30 474.29 L 1444.07 462.72 L 1446.83 463.94 L 1449.60 468.34 L 1452.37 468.90 L 1455.13 459.99 L 1457.90 462.75 L 1460.67 465.90 L 1463.43 452.91 L 1466.20 472.37 L 1468.97 464.55 L 1471.73 466.09 L 1474.50 475.35 L 1477.27 459.67 L 1480.03 459.81 L 1482.80 459.59 L 1485.57 461.69 L 1488.33 464.85 L 1491.10 460.45 L 1493.87 457.77 L 1496.63 462.79 L 1499.40 458.80 L 1502.17 457.57 L 1504.93 452.63 L 1507.70 467.30 L 1510.47 454.05 L 1513.23 465.02 L 1516.00 453.60 L 1518.77 456.03 L 1521.53 462.55 L 1524.30 451.24 L 1527.07 454.09 L 1529.83 458.01 L 1532.60 461.50 L 1535.37 441.11 L 1538.13 463.24 L 1540.90 446.44 L 1543.67 467.42 L 1546.43 448.28 L 1549.20 456.10 L 1551.97 446.75 L 1554.73 455.72 L 1557.50 449.64 L 1560.27 454.38 L 1563.03 446.73 L 1565.80 453.00 L 1568.57 442.50 L 1571.33 452.64 L 1574.10 448.04 L 1576.87 455.24 L 1579.63 444.79 L 1582.40 446.89 L 1585.17 342.80 L 1587.93 420.14 L 1590.70 328.77 L 1593.47 299.77 L 1596.23 289.87 L 1599.00 305.18 L 1601.77 275.81 L 1604.53 310.88 L 1607.30 300.20 L 1610.07 258.10 L 1612.83 318.73 L 1615.60 257.48 L 1618.37 265.95 L 1621.13 350.46 L 1623.90 194.89 L 1626.67 166.52 L 1629.43 163.03 L 1632.20 162.38" fill="none" stroke="#e76f00" stroke-width="2.5" stroke-linejoin="round" stroke-linecap="round"/>
<path d="M 105.00 415.83 L 107.77 428.35 L 110.53 434.96 L 113.30 434.49 L 116.07 443.91 L 118.83 451.47 L 121.60 448.43 L 124.37 456.10 L 127.13 457.26 L 129.90 457.79 L 132.67 461.02 L 135.43 465.38 L 138.20 462.87 L 140.97 464.58 L 143.73 464.78 L 146.50 463.84 L 149.27 465.48 L 152.03 467.52 L 154.80 468.24 L 157.57 463.99 L 160.33 470.30 L 163.10 470.02 L 165.87 469.79 L 168.63 467.39 L 171.40 469.44 L 174.17 463.54 L 176.93 469.18 L 179.70 470.85 L 182.47 466.21 L 185.23 474.19 L 188.00 467.28 L 190.77 472.38 L 193.53 467.25 L 196.30 472.94 L 199.07 465.66 L 201.83 469.14 L 204.60 468.39 L 207.37 469.74 L 210.13 468.68 L 212.90 463.56 L 215.67 469.87 L 218.43 460.81 L 221.20 479.35 L 223.97 458.42 L 226.73 471.00 L 229.50 462.69 L 232.27 465.75 L 235.03 458.29 L 237.80 467.21 L 240.57 460.61 L 243.33 468.01 L 246.10 465.47 L 248.87 464.08 L 251.63 465.18 L 254.40 462.67 L 257.17 460.11 L 259.93 448.08 L 262.70 456.03 L 265.47 449.93 L 268.23 454.23 L 271.00 445.32 L 273.77 455.04 L 276.53 446.86 L 279.30 459.42 L 282.07 454.97 L 284.83 458.81 L 287.60 442.29 L 290.37 455.64 L 293.13 449.56 L 295.90 445.31 L 298.67 456.89 L 301.43 441.41 L 304.20 452.94 L 306.97 441.68 L 309.73 451.61 L 312.50 448.10 L 315.27 448.97 L 318.03 448.30 L 320.80 446.69 L 323.57 354.29 L 326.33 445.26 L 329.10 452.81 L 331.87 380.60 L 334.63 476.56 L 337.40 372.73 L 340.17 403.13 L 342.93 376.12 L 345.70 343.68 L 348.47 468.26 L 351.23 371.70 L 354.00 366.71 L 356.77 416.89 L 359.53 431.02 L 362.30 429.36 L 365.07 440.41 L 367.83 442.86 L 370.60 450.42 L 373.37 447.19 L 376.13 450.94 L 378.90 453.81 L 381.67 461.22 L 384.43 461.56 L 387.20 455.00 L 389.97 466.70 L 392.73 454.92 L 395.50 467.18 L 398.27 462.01 L 401.03 464.36 L 403.80 468.53 L 406.57 469.51 L 409.33 469.63 L 412.10 460.33 L 414.87 463.34 L 417.63 466.71 L 420.40 462.97 L 423.17 463.46 L 425.93 470.36 L 428.70 467.63 L 431.47 469.91 L 434.23 461.37 L 437.00 463.00 L 439.77 462.94 L 442.53 463.09 L 445.30 470.55 L 448.07 461.35 L 450.83 471.56 L 453.60 464.94 L 456.37 468.19 L 459.13 453.13 L 461.90 461.19 L 464.67 461.68 L 467.43 463.06 L 470.20 459.75 L 472.97 454.85 L 475.73 467.20 L 478.50 453.55 L 481.27 470.78 L 484.03 450.22 L 486.80 471.17 L 489.57 454.40 L 492.33 459.78 L 495.10 456.17 L 497.87 463.32 L 500.63 443.97 L 503.40 448.92 L 506.17 462.24 L 508.93 447.38 L 511.70 459.42 L 514.47 449.15 L 517.23 450.26 L 520.00 441.55 L 522.77 459.79 L 525.53 446.42 L 528.30 450.66 L 531.07 447.57 L 533.83 446.24 L 536.60 447.59 L 539.37 446.87 L 542.13 449.71 L 544.90 451.06 L 547.67 442.44 L 550.43 443.56 L 553.20 437.97 L 555.97 452.35 L 558.73 444.89 L 561.50 442.28 L 564.27 426.54 L 567.03 361.62 L 569.80 358.17 L 572.57 336.63 L 575.33 298.23 L 578.10 292.36 L 580.87 285.77 L 583.63 268.59 L 586.40 273.62 L 589.17 288.35 L 591.93 266.26 L 594.70 296.81 L 597.47 311.69 L 600.23 258.82 L 603.00 252.92 L 605.77 343.81 L 611.30 285.22 L 614.07 411.87 L 616.83 422.11 L 619.60 423.76 L 622.37 442.00 L 625.13 442.48 L 627.90 453.11 L 630.67 456.79 L 633.43 454.56 L 636.20 456.22 L 638.97 458.10 L 641.73 464.49 L 644.50 460.27 L 647.27 462.77 L 650.03 461.87 L 652.80 467.39 L 655.57 468.69 L 658.33 467.38 L 661.10 455.51 L 663.87 464.88 L 666.63 474.16 L 669.40 468.35 L 672.17 469.59 L 674.93 465.12 L 677.70 462.93 L 680.47 459.19 L 683.23 464.11 L 686.00 469.55 L 688.77 459.36 L 691.53 472.82 L 694.30 463.14 L 697.07 471.74 L 699.83 457.29 L 702.60 465.00 L 705.37 468.63 L 708.13 470.11 L 710.90 469.03 L 713.67 459.50 L 716.43 468.05 L 719.20 463.17 L 721.97 458.50 L 724.73 463.54 L 727.50 458.87 L 730.27 460.35 L 733.03 457.47 L 735.80 459.82 L 738.57 457.75 L 741.33 457.43 L 744.10 457.53 L 746.87 451.29 L 749.63 459.59 L 752.40 450.41 L 755.17 456.32 L 757.93 460.72 L 760.70 454.00 L 763.47 456.67 L 766.23 439.34 L 769.00 455.91 L 771.77 445.37 L 774.53 459.89 L 777.30 447.72 L 780.07 458.91 L 782.83 434.35 L 785.60 461.19 L 788.37 450.54 L 791.13 456.57 L 793.90 456.05 L 796.67 440.84 L 799.43 455.71 L 802.20 446.05 L 804.97 453.39 L 807.73 446.93 L 810.50 450.43 L 813.27 442.96 L 816.03 447.78 L 818.80 446.67 L 821.57 443.97 L 824.33 445.31 L 827.10 445.97 L 829.87 444.02 L 832.63 445.43 L 835.40 470.80 L 838.17 367.21 L 840.93 446.72 L 843.70 356.63 L 846.47 448.01 L 849.23 360.41 L 852.00 453.06 L 854.77 361.52 L 857.53 444.75 L 860.30 312.57 L 863.07 354.38 L 865.83 422.68 L 868.60 419.82 L 871.37 435.41 L 874.13 437.61 L 876.90 450.81 L 879.67 451.54 L 882.43 453.79 L 885.20 451.57 L 887.97 450.15 L 890.73 464.16 L 893.50 461.77 L 896.27 465.19 L 899.03 457.31 L 901.80 468.43 L 904.57 464.81 L 907.33 463.60 L 910.10 461.04 L 912.87 466.34 L 915.63 470.89 L 918.40 465.79 L 921.17 470.43 L 923.93 468.38 L 926.70 474.26 L 929.47 463.52 L 932.23 459.52 L 935.00 467.19 L 937.77 470.07 L 940.53 468.19 L 943.30 470.72 L 946.07 471.08 L 948.83 452.27 L 951.60 471.03 L 954.37 464.66 L 957.13 470.15 L 959.90 462.48 L 962.67 456.43 L 965.43 461.53 L 968.20 467.48 L 970.97 468.34 L 973.73 463.21 L 976.50 464.26 L 979.27 452.87 L 982.03 468.95 L 984.80 453.50 L 987.57 469.08 L 990.33 449.22 L 993.10 460.11 L 995.87 456.96 L 998.63 465.46 L 1001.40 455.33 L 1004.17 452.32 L 1006.93 448.88 L 1009.70 443.95 L 1012.47 457.16 L 1015.23 451.04 L 1018.00 461.33 L 1020.77 445.64 L 1023.53 458.26 L 1026.30 443.80 L 1029.07 450.96 L 1031.83 445.03 L 1034.60 454.90 L 1037.37 445.27 L 1040.13 450.77 L 1042.90 445.00 L 1045.67 450.75 L 1048.43 447.63 L 1051.20 450.53 L 1053.97 442.19 L 1056.73 455.37 L 1059.50 442.42 L 1062.27 452.23 L 1065.03 434.64 L 1067.80 450.27 L 1070.57 436.52 L 1073.33 463.85 L 1076.10 338.21 L 1078.87 322.79 L 1081.63 437.74 L 1084.40 310.91 L 1087.17 302.56 L 1089.93 291.67 L 1092.70 312.33 L 1095.47 262.03 L 1098.23 274.28 L 1101.00 270.17 L 1103.77 265.85 L 1106.53 266.84 L 1109.30 249.10 L 1112.07 304.94 L 1114.83 192.44 L 1117.60 417.84 L 1120.37 407.88 L 1123.13 427.09 L 1125.90 435.96 L 1128.67 434.39 L 1131.43 451.16 L 1134.20 450.94 L 1136.97 456.00 L 1139.73 456.97 L 1142.50 460.99 L 1145.27 460.52 L 1148.03 464.99 L 1150.80 457.83 L 1153.57 463.60 L 1156.33 468.53 L 1159.10 469.40 L 1161.87 470.50 L 1164.63 462.32 L 1167.40 466.08 L 1170.17 463.61 L 1172.93 469.50 L 1175.70 466.04 L 1178.47 464.18 L 1181.23 465.54 L 1184.00 466.18 L 1186.77 471.27 L 1189.53 461.60 L 1192.30 473.14 L 1195.07 469.80 L 1197.83 463.38 L 1200.60 467.26 L 1203.37 464.57 L 1206.13 468.09 L 1208.90 457.88 L 1211.67 465.18 L 1214.43 459.16 L 1217.20 466.15 L 1219.97 461.57 L 1222.73 463.66 L 1225.50 468.91 L 1228.27 461.94 L 1231.03 471.52 L 1233.80 457.87 L 1236.57 464.57 L 1239.33 456.89 L 1242.10 456.03 L 1244.87 456.97 L 1247.63 464.04 L 1250.40 450.84 L 1253.17 460.06 L 1255.93 455.89 L 1258.70 458.89 L 1261.47 442.92 L 1264.23 459.05 L 1267.00 449.41 L 1269.77 465.78 L 1272.53 444.65 L 1275.30 459.21 L 1278.07 453.21 L 1280.83 460.39 L 1283.60 451.66 L 1286.37 455.64 L 1289.13 450.10 L 1291.90 453.25 L 1294.67 450.02 L 1297.43 446.30 L 1300.20 461.61 L 1302.97 447.25 L 1305.73 462.66 L 1308.50 440.71 L 1311.27 457.29 L 1314.03 444.17 L 1316.80 459.66 L 1319.57 443.67 L 1322.33 455.70 L 1325.10 444.24 L 1327.87 451.45 L 1330.63 445.39 L 1333.40 454.80 L 1336.17 358.37 L 1338.93 447.68 L 1341.70 442.90 L 1344.47 463.62 L 1347.23 374.52 L 1350.00 467.01 L 1352.77 365.15 L 1355.53 394.78 L 1358.30 381.44 L 1361.07 474.70 L 1363.83 363.22 L 1366.60 195.17 L 1369.37 413.00 L 1372.13 421.38 L 1374.90 430.49 L 1377.67 435.87 L 1380.43 442.59 L 1383.20 451.07 L 1385.97 446.74 L 1388.73 455.54 L 1391.50 460.35 L 1394.27 454.97 L 1397.03 464.40 L 1399.80 456.34 L 1402.57 463.29 L 1405.33 461.91 L 1408.10 465.88 L 1410.87 469.85 L 1413.63 465.93 L 1416.40 474.32 L 1419.17 462.80 L 1421.93 471.95 L 1424.70 467.34 L 1427.47 459.23 L 1430.23 466.62 L 1433.00 464.36 L 1435.77 469.12 L 1438.53 457.98 L 1441.30 472.38 L 1444.07 466.31 L 1446.83 459.50 L 1449.60 468.61 L 1452.37 469.83 L 1455.13 470.09 L 1457.90 462.22 L 1460.67 460.39 L 1463.43 464.30 L 1466.20 469.51 L 1468.97 466.51 L 1471.73 471.93 L 1474.50 461.00 L 1477.27 458.46 L 1480.03 457.91 L 1482.80 470.45 L 1485.57 460.46 L 1488.33 454.74 L 1491.10 463.33 L 1493.87 463.17 L 1496.63 466.16 L 1499.40 461.62 L 1502.17 453.93 L 1504.93 455.03 L 1507.70 458.25 L 1510.47 452.65 L 1513.23 463.84 L 1516.00 453.17 L 1518.77 452.86 L 1521.53 450.65 L 1524.30 458.75 L 1527.07 450.51 L 1529.83 454.77 L 1532.60 452.49 L 1535.37 445.67 L 1538.13 455.19 L 1540.90 439.26 L 1543.67 461.89 L 1546.43 444.69 L 1549.20 458.10 L 1551.97 442.82 L 1554.73 464.83 L 1557.50 452.10 L 1560.27 451.74 L 1563.03 445.34 L 1565.80 448.64 L 1568.57 441.03 L 1571.33 450.04 L 1574.10 444.49 L 1576.87 448.99 L 1579.63 443.19 L 1582.40 399.30 L 1585.17 330.60 L 1587.93 329.00 L 1590.70 286.73 L 1593.47 327.88 L 1596.23 265.45 L 1599.00 275.99 L 1601.77 329.72 L 1604.53 267.14 L 1607.30 257.42 L 1610.07 253.69 L 1612.83 321.19 L 1615.60 277.21 L 1618.37 205.38" fill="none" stroke="#00add8" stroke-width="2.5" stroke-linejoin="round" stroke-linecap="round"/>
<path d="M 105.00 417.26 L 107.77 429.65 L 110.53 433.11 L 113.30 442.57 L 116.07 449.25 L 118.83 453.11 L 121.60 456.35 L 124.37 458.00 L 127.13 459.27 L 129.90 459.50 L 132.67 464.94 L 135.43 462.15 L 138.20 460.80 L 140.97 468.76 L 143.73 466.30 L 146.50 461.29 L 149.27 469.39 L 152.03 470.25 L 154.80 467.50 L 157.57 471.48 L 160.33 468.66 L 163.10 467.75 L 165.87 473.05 L 168.63 466.60 L 171.40 469.47 L 174.17 465.71 L 176.93 470.99 L 179.70 466.86 L 182.47 471.26 L 185.23 469.06 L 188.00 470.53 L 190.77 473.72 L 193.53 468.06 L 196.30 470.14 L 199.07 460.53 L 201.83 470.82 L 204.60 468.93 L 207.37 465.65 L 210.13 465.18 L 212.90 463.82 L 215.67 469.68 L 218.43 462.70 L 221.20 469.78 L 223.97 470.74 L 226.73 469.98 L 229.50 463.29 L 232.27 470.52 L 235.03 459.32 L 237.80 461.64 L 240.57 451.95 L 243.33 462.34 L 246.10 450.08 L 248.87 451.97 L 251.63 456.75 L 254.40 457.26 L 257.17 456.10 L 259.93 454.60 L 262.70 458.84 L 265.47 444.45 L 268.23 456.59 L 271.00 451.25 L 273.77 461.17 L 276.53 451.29 L 279.30 455.43 L 282.07 442.97 L 284.83 453.78 L 287.60 443.89 L 290.37 458.48 L 293.13 453.66 L 295.90 444.24 L 298.67 449.63 L 301.43 440.41 L 304.20 454.83 L 306.97 445.32 L 309.73 452.48 L 312.50 448.03 L 315.27 452.76 L 318.03 439.82 L 320.80 451.81 L 323.57 358.16 L 326.33 450.58 L 329.10 449.30 L 331.87 356.32 L 334.63 451.92 L 337.40 365.94 L 340.17 445.31 L 342.93 362.13 L 345.70 467.85 L 348.47 371.70 L 351.23 356.48 L 354.00 416.35 L 356.77 416.29 L 359.53 422.40 L 362.30 428.04 L 365.07 439.64 L 367.83 440.21 L 370.60 454.81 L 373.37 453.95 L 376.13 459.51 L 378.90 458.26 L 381.67 455.89 L 384.43 462.95 L 387.20 456.23 L 389.97 461.93 L 392.73 463.56 L 395.50 468.43 L 398.27 465.51 L 401.03 459.71 L 403.80 468.49 L 406.57 467.62 L 409.33 474.05 L 412.10 465.69 L 414.87 473.23 L 417.63 464.52 L 420.40 462.72 L 423.17 463.72 L 425.93 459.65 L 428.70 469.66 L 431.47 463.79 L 434.23 456.69 L 437.00 468.14 L 439.77 469.37 L 442.53 469.50 L 445.30 469.02 L 448.07 474.27 L 450.83 464.73 L 453.60 468.49 L 456.37 458.38 L 459.13 466.15 L 461.90 458.54 L 464.67 459.87 L 467.43 460.14 L 470.20 466.81 L 472.97 458.35 L 475.73 458.48 L 478.50 458.51 L 481.27 461.87 L 484.03 459.39 L 486.80 459.72 L 489.57 461.07 L 492.33 453.26 L 495.10 458.56 L 497.87 458.76 L 500.63 453.31 L 503.40 450.01 L 506.17 456.92 L 508.93 441.60 L 511.70 467.27 L 514.47 445.64 L 517.23 454.10 L 520.00 444.13 L 522.77 455.06 L 525.53 452.13 L 528.30 448.18 L 531.07 443.11 L 533.83 438.43 L 536.60 456.25 L 539.37 447.23 L 542.13 453.42 L 544.90 434.61 L 547.67 445.72 L 550.43 434.26 L 553.20 451.60 L 555.97 434.36 L 558.73 451.15 L 561.50 432.39 L 564.27 446.84 L 567.03 432.63 L 569.80 380.41 L 572.57 318.99 L 575.33 344.50 L 578.10 305.31 L 580.87 310.42 L 583.63 291.43 L 586.40 272.25 L 589.17 260.13 L 591.93 257.92 L 594.70 345.36 L 597.47 282.28 L 600.23 289.75 L 603.00 261.74 L 605.77 174.45 L 608.53 415.37 L 611.30 406.63 L 614.07 422.08 L 616.83 437.48 L 619.60 448.04 L 622.37 444.62 L 625.13 449.18 L 627.90 448.06 L 630.67 454.97 L 633.43 459.37 L 636.20 455.03 L 638.97 467.83 L 641.73 459.40 L 644.50 466.38 L 647.27 464.20 L 650.03 466.77 L 652.80 470.44 L 655.57 459.01 L 658.33 465.97 L 661.10 463.13 L 663.87 465.65 L 666.63 467.12 L 669.40 466.68 L 672.17 466.18 L 674.93 467.37 L 677.70 470.98 L 680.47 461.35 L 683.23 462.11 L 686.00 470.62 L 688.77 472.00 L 691.53 465.07 L 694.30 466.39 L 697.07 469.39 L 699.83 465.59 L 702.60 467.34 L 705.37 460.48 L 708.13 464.06 L 710.90 465.33 L 713.67 472.19 L 716.43 457.58 L 719.20 463.30 L 721.97 456.67 L 724.73 465.23 L 727.50 456.84 L 730.27 461.92 L 733.03 458.47 L 735.80 464.77 L 738.57 459.06 L 741.33 453.41 L 744.10 462.62 L 746.87 446.42 L 749.63 458.81 L 752.40 450.15 L 755.17 463.33 L 757.93 447.24 L 760.70 465.27 L 763.47 446.65 L 766.23 454.18 L 769.00 443.22 L 771.77 449.21 L 774.53 450.82 L 777.30 450.30 L 780.07 459.65 L 782.83 447.89 L 785.60 460.19 L 788.37 441.30 L 791.13 453.49 L 793.90 442.75 L 796.67 464.02 L 799.43 441.02 L 802.20 445.51 L 804.97 444.31 L 807.73 447.46 L 810.50 445.55 L 813.27 446.09 L 816.03 443.14 L 818.80 450.57 L 821.57 442.17 L 824.33 446.21 L 827.10 389.85 L 829.87 383.83 L 832.63 447.30 L 835.40 379.51 L 838.17 442.45 L 840.93 366.48 L 843.70 443.05 L 846.47 355.66 L 849.23 437.60 L 852.00 366.83 L 854.77 350.95 L 857.53 492.23 L 860.30 419.18 L 863.07 423.04 L 865.83 429.34 L 868.60 438.73 L 871.37 444.93 L 874.13 447.89 L 876.90 450.55 L 879.67 454.76 L 882.43 459.67 L 885.20 459.75 L 887.97 463.61 L 890.73 464.27 L 893.50 462.27 L 896.27 470.20 L 899.03 467.93 L 901.80 472.42 L 904.57 462.05 L 907.33 467.17 L 910.10 466.93 L 912.87 465.26 L 915.63 472.02 L 918.40 466.68 L 921.17 467.04 L 923.93 463.81 L 926.70 464.26 L 929.47 464.04 L 932.23 462.63 L 935.00 477.51 L 937.77 466.74 L 940.53 468.42 L 943.30 467.72 L 946.07 470.76 L 948.83 467.54 L 951.60 469.23 L 954.37 464.25 L 957.13 468.60 L 959.90 460.59 L 962.67 466.47 L 965.43 462.23 L 968.20 455.26 L 970.97 469.34 L 973.73 459.31 L 976.50 461.68 L 979.27 455.39 L 982.03 459.25 L 984.80 459.32 L 987.57 466.97 L 990.33 457.07 L 993.10 458.50 L 995.87 455.49 L 998.63 464.68 L 1001.40 458.85 L 1004.17 457.37 L 1006.93 460.82 L 1009.70 452.19 L 1012.47 454.71 L 1015.23 446.25 L 1018.00 459.19 L 1020.77 449.63 L 1023.53 464.05 L 1026.30 452.03 L 1029.07 452.50 L 1031.83 436.90 L 1034.60 459.09 L 1037.37 446.79 L 1040.13 456.18 L 1042.90 443.11 L 1045.67 449.57 L 1048.43 449.13 L 1051.20 444.93 L 1053.97 450.57 L 1056.73 445.87 L 1059.50 455.68 L 1062.27 440.28 L 1065.03 439.59 L 1067.80 443.68 L 1070.57 431.79 L 1073.33 448.87 L 1076.10 340.27 L 1078.87 329.87 L 1081.63 305.88 L 1084.40 296.26 L 1087.17 278.76 L 1089.93 275.17 L 1092.70 260.46 L 1095.47 304.27 L 1098.23 288.94 L 1101.00 258.31 L 1103.77 275.87 L 1106.53 268.33 L 1109.30 193.82 L 1112.07 410.24 L 1114.83 423.36 L 1117.60 412.82 L 1120.37 435.64 L 1123.13 441.57 L 1125.90 453.51 L 1128.67 452.21 L 1131.43 455.82 L 1134.20 459.48 L 1136.97 457.56 L 1139.73 458.92 L 1142.50 458.39 L 1145.27 468.09 L 1148.03 461.05 L 1150.80 465.54 L 1153.57 461.97 L 1156.33 464.77 L 1159.10 472.19 L 1161.87 463.13 L 1164.63 471.33 L 1167.40 470.28 L 1170.17 472.61 L 1172.93 461.30 L 1175.70 467.58 L 1178.47 472.64 L 1181.23 466.20 L 1184.00 476.11 L 1186.77 469.12 L 1189.53 470.47 L 1192.30 467.95 L 1195.07 470.83 L 1197.83 465.77 L 1200.60 468.21 L 1203.37 470.85 L 1206.13 465.23 L 1208.90 466.76 L 1211.67 466.34 L 1214.43 466.88 L 1217.20 465.44 L 1219.97 469.49 L 1222.73 462.44 L 1225.50 455.18 L 1228.27 453.95 L 1231.03 451.24 L 1233.80 458.07 L 1236.57 471.41 L 1239.33 462.33 L 1242.10 456.91 L 1244.87 452.05 L 1247.63 455.08 L 1250.40 456.93 L 1253.17 446.28 L 1255.93 467.60 L 1258.70 453.43 L 1261.47 464.76 L 1264.23 443.17 L 1267.00 461.28 L 1269.77 444.20 L 1272.53 447.71 L 1275.30 452.30 L 1278.07 457.30 L 1280.83 457.07 L 1283.60 441.21 L 1286.37 451.75 L 1289.13 437.74 L 1291.90 457.74 L 1294.67 440.83 L 1297.43 466.96 L 1300.20 442.99 L 1302.97 451.39 L 1305.73 444.62 L 1308.50 449.60 L 1311.27 450.52 L 1314.03 447.87 L 1316.80 445.58 L 1319.57 449.13 L 1322.33 454.76 L 1325.10 450.65 L 1327.87 413.17 L 1330.63 420.17 L 1333.40 368.14 L 1336.17 451.40 L 1338.93 376.22 L 1341.70 455.89 L 1344.47 355.97 L 1347.23 454.32 L 1350.00 355.45 L 1352.77 467.25 L 1355.53 365.66 L 1358.30 482.95 L 1361.07 330.73 L 1363.83 416.67 L 1366.60 417.59 L 1369.37 433.66 L 1372.13 433.82 L 1374.90 442.97 L 1377.67 450.30 L 1380.43 448.70 L 1383.20 456.32 L 1385.97 455.81 L 1388.73 456.56 L 1391.50 456.37 L 1394.27 456.62 L 1397.03 464.93 L 1399.80 460.70 L 1402.57 471.22 L 1405.33 466.45 L 1408.10 471.53 L 1410.87 462.59 L 1413.63 464.77 L 1416.40 463.44 L 1419.17 462.93 L 1421.93 475.23 L 1424.70 462.13 L 1427.47 469.54 L 1430.23 465.35 L 1433.00 461.42 L 1435.77 471.05 L 1438.53 459.97 L 1441.30 468.74 L 1444.07 449.95 L 1446.83 474.40 L 1449.60 462.26 L 1452.37 464.84 L 1455.13 468.34 L 1457.90 467.44 L 1460.67 466.90 L 1463.43 458.43 L 1466.20 462.42 L 1468.97 455.65 L 1471.73 466.95 L 1474.50 463.72 L 1477.27 468.44 L 1480.03 464.05 L 1482.80 455.38 L 1485.57 459.30 L 1488.33 462.57 L 1491.10 455.00 L 1493.87 457.89 L 1496.63 460.88 L 1499.40 461.33 L 1502.17 454.21 L 1504.93 445.50 L 1507.70 455.61 L 1510.47 451.84 L 1513.23 459.24 L 1516.00 452.11 L 1518.77 460.58 L 1521.53 447.71 L 1524.30 456.99 L 1527.07 436.43 L 1529.83 457.11 L 1532.60 450.59 L 1535.37 451.43 L 1538.13 450.88 L 1540.90 448.09 L 1543.67 441.93 L 1546.43 442.14 L 1549.20 451.03 L 1551.97 446.82 L 1554.73 442.05 L 1557.50 435.50 L 1560.27 450.70 L 1563.03 441.68 L 1565.80 449.98 L 1568.57 435.50 L 1571.33 445.05 L 1574.10 406.46 L 1576.87 355.49 L 1579.63 326.17 L 1582.40 302.25 L 1585.17 312.24 L 1587.93 320.29 L 1590.70 277.81 L 1593.47 246.66 L 1596.23 275.94 L 1599.00 269.74 L 1601.77 301.75 L 1604.53 269.80 L 1607.30 277.37 L 1610.07 283.28 L 1612.83 188.81 L 1615.60 145.04" fill="none" stroke="#ef4444" stroke-width="2.5" stroke-linejoin="round" stroke-linecap="round"/>
<line x1="105" y1="573" x2="133" y2="573" stroke="#6d4aff" stroke-width="4"/>
<text class="theme-text" x="143.00" y="578.00" fill="#111827" font-family="Inter,system-ui,sans-serif" font-size="13" font-weight="400" text-anchor="start">.NET</text>
<line x1="315" y1="573" x2="343" y2="573" stroke="#e76f00" stroke-width="4"/>
<text class="theme-text" x="353.00" y="578.00" fill="#111827" font-family="Inter,system-ui,sans-serif" font-size="13" font-weight="400" text-anchor="start">Java</text>
<line x1="525" y1="573" x2="553" y2="573" stroke="#00add8" stroke-width="4"/>
<text class="theme-text" x="563.00" y="578.00" fill="#111827" font-family="Inter,system-ui,sans-serif" font-size="13" font-weight="400" text-anchor="start">golang</text>
<line x1="735" y1="573" x2="763" y2="573" stroke="#ef4444" stroke-width="4"/>
<text class="theme-text" x="773.00" y="578.00" fill="#111827" font-family="Inter,system-ui,sans-serif" font-size="13" font-weight="400" text-anchor="start">Rust</text>
<text class="theme-muted" transform="translate(25 300.00) rotate(-90)" x="0.00" y="0.00" fill="#64748b" font-family="Inter,system-ui,sans-serif" font-size="12" font-weight="400" text-anchor="middle">Milliseconds (logarithmic)</text>
</svg>
